<?xml version="1.0" encoding="UTF-8" standalone="no"?>
<!-- Created with Inkscape (http://www.inkscape.org/) -->

<svg
   xmlns:dc="http://purl.org/dc/elements/1.1/"
   xmlns:cc="http://creativecommons.org/ns#"
   xmlns:rdf="http://www.w3.org/1999/02/22-rdf-syntax-ns#"
   xmlns:svg="http://www.w3.org/2000/svg"
   xmlns="http://www.w3.org/2000/svg"
   xmlns:sodipodi="http://sodipodi.sourceforge.net/DTD/sodipodi-0.dtd"
   xmlns:inkscape="http://www.inkscape.org/namespaces/inkscape"
   width="256"
   height="180"
   viewBox="0 0 256 180"
   version="1.1"
   id="svg8"
   inkscape:version="0.92.3 (2405546, 2018-03-11)"
   sodipodi:docname="logo.svg">
  <defs
     id="defs2" />
  <sodipodi:namedview
     id="base"
     pagecolor="#ffffff"
     bordercolor="#666666"
     borderopacity="1.0"
     inkscape:pageopacity="0.0"
     inkscape:pageshadow="2"
     inkscape:zoom="2"
     inkscape:cx="127.90057"
     inkscape:cy="-5.3086305"
     inkscape:document-units="px"
     inkscape:current-layer="svg8"
     showgrid="false"
     units="px"
     inkscape:snap-text-baseline="true"
     inkscape:window-width="2560"
     inkscape:window-height="1412"
     inkscape:window-x="0"
     inkscape:window-y="28"
     inkscape:window-maximized="1">
    <inkscape:grid
       type="xygrid"
       id="grid14"
       spacingx="4"
       spacingy="4"
       empspacing="4" />
  </sodipodi:namedview>
  <metadata
     id="metadata5">
    <rdf:RDF>
      <cc:Work
         rdf:about="">
        <dc:format>image/svg+xml</dc:format>
        <dc:type
           rdf:resource="http://purl.org/dc/dcmitype/StillImage" />
        <dc:title />
      </cc:Work>
    </rdf:RDF>
  </metadata>
  <g
     inkscape:label="Layer 1"
     inkscape:groupmode="layer"
     id="layer1" />
  <g
     aria-label="png"
     style="font-style:normal;font-variant:normal;font-weight:normal;font-stretch:normal;font-size:133.33332825px;line-height:1.25;font-family:'Engravers Old English';-inkscape-font-specification:'Engravers Old English';text-align:center;letter-spacing:0px;word-spacing:0px;text-anchor:middle;fill:#000000;fill-opacity:1;stroke:none"
     id="text12">
    <path
       d="m 57.211461,71.066667 c 6.577777,1.511111 11.466666,4.844445 14.666666,10 l 4.133333,-1.6 V 39.466669 C 74.055905,38.488891 71.967016,36.711113 69.744794,34.133335 L 57.211461,44.000002 Z M 45.344795,45.066668 c 0,-5.511111 -3.155555,-8.622222 -9.466666,-9.333333 6.311111,-4.266666 10.888888,-8.71111 13.733332,-13.333332 5.066667,3.288889 7.6,8.888888 7.6,16.799999 v 1.866666 L 80.41146,22.266669 c 2.311111,5.777778 5.733333,8.666667 10.266666,8.666667 0.355556,0 1.333334,-0.177778 2.933334,-0.533334 -1.066667,2.666667 -2.844444,4.844444 -5.333333,6.533333 v 28.666666 c 0,5.422222 0.977778,10.444444 2.933333,15.066666 C 88.81146,80.488889 87.122571,80.4 86.144793,80.4 c -3.555555,0 -7.555555,0.755556 -11.999999,2.266667 -4.711111,1.688889 -8.222222,3.688889 -10.533333,6 -1.6,-2.311111 -3.733333,-3.911111 -6.4,-4.8 v 12.266666 c 0,5.777777 0.8,9.599997 2.4,11.466667 -3.2,0.44445 -6.711111,1.6 -10.533333,3.46667 -3.822222,1.95555 -6.355555,3.02222 -7.6,3.2 2.577778,-3.28889 3.866667,-8.44445 3.866667,-15.46667 V 80.533334 l 0,-8.533333 z"
       id="path18"
       inkscape:connector-curvature="0"
       sodipodi:nodetypes="cccccccsccsccsccscscccscccsccs" />
    <path
       d="m 116.22604,90 c -2.63625,-4.107641 -5.84334,-6.798729 -9.62129,-8.073265 l 0.42129,-7.660068 V 45.466668 c 0,-3.644444 -0.57778,-6.133333 -1.73333,-7.466666 -1.15556,-1.333333 -3.68889,-2.177778 -7.600002,-2.533333 6.133332,-3.733333 10.666672,-8.044444 13.600002,-12.933333 3.46667,1.777777 5.77778,4.444444 6.93333,8 0.71111,2.311111 1.06667,6.133333 1.06667,11.466666 l 24.4,-19.2 c 2.04444,5.422223 5.11111,8.133334 9.2,8.133334 0.35555,0 1.11111,-0.133333 2.26666,-0.4 -0.97777,2.755555 -2.88888,5.066666 -5.73333,6.933333 v 30.266665 c 0,6.4 3.33333,9.733333 10,10 -4.26667,3.644444 -8.04444,7.777777 -11.33333,12.399999 -4.62223,-1.244444 -7.68889,-3.466666 -9.2,-6.666666 -1.06667,-2.222222 -1.6,-5.955555 -1.6,-11.2 V 39.600002 c -1.51111,-0.8 -3.2,-2.355556 -5.06667,-4.666667 l -13.06667,10.533333 v 28.666666 c 4.35556,1.422222 7.46667,3.466666 9.33334,6.133333 -4.97778,2.222222 -9.06667,5.466666 -12.26667,9.733333 z"
       id="path20"
       inkscape:connector-curvature="0"
       sodipodi:nodetypes="cccsccccccsccscccscccccc" />
    <path
       d="m 214.26353,74.800001 c 4.53333,2.311111 6.8,5.466666 6.8,9.466666 0,2.666667 -1.06667,5.2 -3.2,7.6 -1.51111,1.688889 -4.35555,4 -8.53333,6.933333 l -16.8,12.13333 c -3.2,-3.73333 -7.64444,-5.6 -13.33333,-5.6 -2.22223,0 -5.06667,0.48889 -8.53334,1.46667 5.33333,-7.288889 11.42222,-10.933334 18.26667,-10.933334 4.8,0 9.2,1.600001 13.2,4.800004 5.68889,-2.933336 8.53333,-6.26667 8.53333,-10.000003 0,-2.666667 -0.84444,-4.622222 -2.53333,-5.866667 -1.6,-1.333333 -3.15556,-2.577778 -4.66667,-3.733333 -0.88889,-0.977778 -1.33333,-2.977778 -1.33333,-6 V 73.600001 C 194.57465,78.666667 187.77465,83.6 181.7302,88.4 c -3.41463,-3.983732 -7.00005,-6.373366 -10.75627,-7.168904 l 0.35627,-9.897762 V 43.600002 c 0,-4.266667 -1.02222,-8 -3.06667,-11.2 1.42223,0.08889 3.37778,0.133333 5.86667,0.133333 12.17778,0 22.93334,-3.377777 32.26667,-10.133332 2.31111,5.955555 5.73333,8.933332 10.26666,8.933332 0.35556,0 1.37778,-0.177778 3.06667,-0.533333 -1.15555,2.755555 -2.97778,4.933333 -5.46667,6.533333 z M 202.1302,70.933334 V 39.466669 c -3.91111,-0.977778 -7.28889,-3.511111 -10.13333,-7.6 -3.28889,1.155555 -6.08889,1.866666 -8.4,2.133333 v 36.266665 c 3.64444,1.6 6.57777,4.044444 8.8,7.333333 1.95555,-1.511111 5.2,-3.733333 9.73333,-6.666666 z"
       id="path22"
       inkscape:connector-curvature="0"
       sodipodi:nodetypes="cscccscscsccsccccscscscccccccccc" />
  </g>
  <path
     style="fill:none;stroke:#000000;stroke-width:4;stroke-linecap:butt;stroke-linejoin:miter;stroke-miterlimit:4;stroke-dasharray:none;stroke-opacity:1"
     d="m 80,124 h 96"
     id="path16"
     inkscape:connector-curvature="0"
     sodipodi:nodetypes="cc" />
  <g
     aria-label="3.0.0"
     style="font-style:normal;font-variant:normal;font-weight:normal;font-stretch:normal;font-size:37.33333206px;line-height:1.25;font-family:'Kepler Std';-inkscape-font-specification:'Kepler Std';text-align:center;letter-spacing:0px;word-spacing:0px;text-anchor:middle;fill:#000000;fill-opacity:1;stroke:none"
     id="text828">
    <path
       d="m 106.13175,140.928 c -4.33067,0 -6.570666,2.83733 -6.570666,4.77867 0,1.26933 0.671996,1.86666 1.530666,1.86666 0.37333,0 0.784,-0.0747 1.08267,-0.41066 0.224,-0.26134 0.336,-0.59734 0.26133,-0.93334 -0.112,-0.37333 -0.18667,-0.85866 -0.18667,-1.19466 0,-1.86667 1.12,-2.94934 3.06134,-2.94934 2.20266,0 3.21066,1.94134 3.21066,4.10667 0,3.06133 -1.792,4.256 -3.06133,4.85333 -0.784,0.448 -1.86667,0.74667 -2.87467,0.93334 l -0.112,0.29866 0.672,0.784 c 0.52267,-0.14933 1.26934,-0.26133 1.86667,-0.26133 3.248,0 4.44267,2.016 4.44267,4.928 0,3.28533 -1.19467,5.712 -4.032,5.712 -1.792,0 -3.09867,-1.008 -3.62134,-3.54667 -0.18666,-0.784 -0.52266,-1.15733 -1.12,-1.15733 -0.970662,0 -1.717329,0.784 -1.717329,1.792 0,1.904 2.239999,3.99467 6.309329,3.99467 2.53867,0 4.62934,-0.82134 5.89867,-1.97867 1.232,-1.15733 2.128,-2.76267 2.128,-4.928 0,-1.68 -0.48533,-2.83733 -1.456,-3.808 -1.12,-1.15733 -3.248,-1.86667 -5.30133,-2.016 v -0.14933 c 1.344,-0.52267 2.61333,-1.04534 3.54666,-1.75467 1.08267,-0.82133 1.97867,-1.97867 1.97867,-3.92 0,-3.21067 -2.8,-5.04 -5.89867,-5.04 z"
       style=""
       id="path830" />
    <path
       d="m 118.05625,159.81867 c -1.19467,0 -2.20267,1.008 -2.20267,2.352 0,1.41866 0.97067,2.352 2.16534,2.352 1.19466,0 2.20266,-0.97067 2.20266,-2.352 0,-1.30667 -0.85866,-2.352 -2.128,-2.352 z"
       style=""
       id="path832" />
    <path
       d="m 130.27242,140.928 c -1.49334,0 -2.87467,0.52267 -4.032,1.568 -2.42667,2.128 -3.472,6.01067 -3.50934,10.304 -0.0373,4.032 0.70934,7.69067 2.65067,9.81867 1.19467,1.30666 2.83733,1.904 4.48,1.904 1.26933,0 2.87467,-0.37334 4.21867,-1.60534 1.82933,-1.68 3.21066,-4.89066 3.248,-10.56533 0,-3.77067 -0.74667,-7.20533 -2.42667,-9.25867 -1.15733,-1.41866 -2.76267,-2.16533 -4.592,-2.16533 z m -0.224,1.12 c 1.30666,0 2.05333,0.70933 2.61333,1.904 0.672,1.60533 1.15733,4.55467 1.15733,8.736 0,4.06933 -0.37333,6.86933 -1.12,8.58667 -0.59733,1.38133 -1.38133,2.09066 -2.50133,2.09066 -1.30667,0 -2.20267,-0.896 -2.76267,-2.24 -0.82133,-1.94133 -1.19466,-5.152 -1.19466,-8.58666 0,-3.32267 0.52266,-6.90667 1.344,-8.624 0.63466,-1.26934 1.344,-1.86667 2.42666,-1.86667 z"
       style=""
       id="path834" />
    <path
       d="m 141.97292,159.81867 c -1.19467,0 -2.20267,1.008 -2.20267,2.352 0,1.41866 0.97067,2.352 2.16533,2.352 1.19467,0 2.20267,-0.97067 2.20267,-2.352 0,-1.30667 -0.85867,-2.352 -2.128,-2.352 z"
       style=""
       id="path836" />
    <path
       d="m 154.18908,140.928 c -1.49333,0 -2.87466,0.52267 -4.032,1.568 -2.42666,2.128 -3.472,6.01067 -3.50933,10.304 -0.0373,4.032 0.70933,7.69067 2.65067,9.81867 1.19466,1.30666 2.83733,1.904 4.48,1.904 1.26933,0 2.87466,-0.37334 4.21866,-1.60534 1.82934,-1.68 3.21067,-4.89066 3.248,-10.56533 0,-3.77067 -0.74666,-7.20533 -2.42666,-9.25867 -1.15734,-1.41866 -2.76267,-2.16533 -4.592,-2.16533 z m -0.224,1.12 c 1.30667,0 2.05334,0.70933 2.61334,1.904 0.672,1.60533 1.15733,4.55467 1.15733,8.736 0,4.06933 -0.37333,6.86933 -1.12,8.58667 -0.59733,1.38133 -1.38133,2.09066 -2.50133,2.09066 -1.30667,0 -2.20267,-0.896 -2.76267,-2.24 -0.82133,-1.94133 -1.19467,-5.152 -1.19467,-8.58666 0,-3.32267 0.52267,-6.90667 1.344,-8.624 0.63467,-1.26934 1.344,-1.86667 2.42667,-1.86667 z"
       style=""
       id="path838" />
  </g>
</svg>
