<?xml version="1.0" encoding="UTF-8"?>
    <!DOCTYPE svg PUBLIC "-//W3C//DTD SVG 1.1//EN"
  "http://www.w3.org/Graphics/SVG/1.1/DTD/svg11.dtd">
<svg xmlns="http://www.w3.org/2000/svg" xmlns:xlink="http://www.w3.org/1999/xlink" width="800" height="680" viewBox="0 0 800 680">
<style type="text/css" >
    <![CDATA[
        
    rect.background 
    {
        fill:   white;
    }
    
    path.grid 
    {
        stroke-width: 1px;
        fill:   none;
    }
    path.grid-major 
    {
        stroke: #eeeeeeff;
    }
    path.grid-minor 
    {
        stroke: #f5f5f5ff;
    }
    
    path.tick 
    {
        stroke-width: 1px;
        stroke: #333333ff;
        fill:   none;
    }
    
    path.stem 
    {
        stroke-width: 1px;
        stroke-dasharray: 3 3;
    }
    circle.dot 
    {
        stroke-width: 2px;
        stroke: #666;
        fill:   none;
    }
    
    text
    {
        fill: #333333ff;
        font-family: 'SF Mono';
    }
    text.label-numeric 
    {
        font-size: 12px;
    }
    text.label-numeric.unity 
    {
        font-weight: 700;
    }
    text.label-x 
    {
        text-anchor: middle; 
        dominant-baseline: text-top;
    }
    
    text.label-legend, text.label-percent
    {
        font-size: 12px;
        dominant-baseline: middle;
    }
    text.label-percent 
    {
        font-weight: 700;
    }
    text.label-legend.better, text.label-percent.worse 
    {
        text-anchor: begin; 
    }
    text.label-legend.worse, text.label-percent.better 
    {
        text-anchor: end; 
    }
    
    text.title, text.subtitle 
    {
        text-anchor: middle; 
    }
    text.title 
    {
        font-size: 20px;
    }
    text.subtitle 
    {
        font-size: 12px;
    }
    
    circle.better, path.stem.better
    {
        stroke: #ff694eff
    }
    circle.worse, path.stem.worse
    {
        stroke: #888888ff
    }
    text.label-percent.better 
    {
        fill: #ff694eff
    }
    text.label-percent.worse 
    {
        fill: #666666ff
    }
    
    ]]>
</style>
    <rect width="800" height="680" class="background"/>
    <path class="grid grid-minor" d="M 79.5,660 L 79.5,109"/>
    <path class="grid grid-minor" d="M 98.5,660 L 98.5,109"/>
    <path class="grid grid-minor" d="M 117.5,660 L 117.5,109"/>
    <path class="grid grid-minor" d="M 154.5,660 L 154.5,109"/>
    <path class="grid grid-minor" d="M 173.5,660 L 173.5,109"/>
    <path class="grid grid-minor" d="M 192.5,660 L 192.5,109"/>
    <path class="grid grid-minor" d="M 230.5,660 L 230.5,109"/>
    <path class="grid grid-minor" d="M 249.5,660 L 249.5,109"/>
    <path class="grid grid-minor" d="M 268.5,660 L 268.5,109"/>
    <path class="grid grid-minor" d="M 306.5,660 L 306.5,109"/>
    <path class="grid grid-minor" d="M 324.5,660 L 324.5,109"/>
    <path class="grid grid-minor" d="M 343.5,660 L 343.5,109"/>
    <path class="grid grid-minor" d="M 381.5,660 L 381.5,109"/>
    <path class="grid grid-minor" d="M 400.5,660 L 400.5,109"/>
    <path class="grid grid-minor" d="M 419.5,660 L 419.5,109"/>
    <path class="grid grid-minor" d="M 457.5,660 L 457.5,109"/>
    <path class="grid grid-minor" d="M 476.5,660 L 476.5,109"/>
    <path class="grid grid-minor" d="M 494.5,660 L 494.5,109"/>
    <path class="grid grid-minor" d="M 532.5,660 L 532.5,109"/>
    <path class="grid grid-minor" d="M 551.5,660 L 551.5,109"/>
    <path class="grid grid-minor" d="M 570.5,660 L 570.5,109"/>
    <path class="grid grid-minor" d="M 608.5,660 L 608.5,109"/>
    <path class="grid grid-minor" d="M 627.5,660 L 627.5,109"/>
    <path class="grid grid-minor" d="M 646.5,660 L 646.5,109"/>
    <path class="grid grid-minor" d="M 683.5,660 L 683.5,109"/>
    <path class="grid grid-minor" d="M 702.5,660 L 702.5,109"/>
    <path class="grid grid-minor" d="M 721.5,660 L 721.5,109"/>
    <path class="grid grid-major" d="M 60.5,660 L 60.5,109"/>
    <path class="grid grid-major" d="M 136.5,660 L 136.5,109"/>
    <path class="grid grid-major" d="M 211.5,660 L 211.5,109"/>
    <path class="grid grid-major" d="M 287.5,660 L 287.5,109"/>
    <path class="grid grid-major" d="M 362.5,660 L 362.5,109"/>
    <path class="grid grid-major" d="M 438.5,660 L 438.5,109"/>
    <path class="grid grid-major" d="M 513.5,660 L 513.5,109"/>
    <path class="grid grid-major" d="M 589.5,660 L 589.5,109"/>
    <path class="grid grid-major" d="M 664.5,660 L 664.5,109"/>
    <path class="grid grid-major" d="M 740.5,660 L 740.5,109"/>
    <path class="tick" d="M 60.5,102 L 60.5,90"/>
    <path class="tick" d="M 79.5,102 L 79.5,96"/>
    <path class="tick" d="M 98.5,102 L 98.5,96"/>
    <path class="tick" d="M 117.5,102 L 117.5,96"/>
    <path class="tick" d="M 136.5,102 L 136.5,90"/>
    <path class="tick" d="M 154.5,102 L 154.5,96"/>
    <path class="tick" d="M 173.5,102 L 173.5,96"/>
    <path class="tick" d="M 192.5,102 L 192.5,96"/>
    <path class="tick" d="M 211.5,102 L 211.5,90"/>
    <path class="tick" d="M 230.5,102 L 230.5,96"/>
    <path class="tick" d="M 249.5,102 L 249.5,96"/>
    <path class="tick" d="M 268.5,102 L 268.5,96"/>
    <path class="tick" d="M 287.5,102 L 287.5,90"/>
    <path class="tick" d="M 306.5,102 L 306.5,96"/>
    <path class="tick" d="M 324.5,102 L 324.5,96"/>
    <path class="tick" d="M 343.5,102 L 343.5,96"/>
    <path class="tick" d="M 362.5,102 L 362.5,90"/>
    <path class="tick" d="M 381.5,102 L 381.5,96"/>
    <path class="tick" d="M 400.5,102 L 400.5,96"/>
    <path class="tick" d="M 419.5,102 L 419.5,96"/>
    <path class="tick" d="M 438.5,102 L 438.5,90"/>
    <path class="tick" d="M 457.5,102 L 457.5,96"/>
    <path class="tick" d="M 476.5,102 L 476.5,96"/>
    <path class="tick" d="M 494.5,102 L 494.5,96"/>
    <path class="tick" d="M 513.5,102 L 513.5,90"/>
    <path class="tick" d="M 532.5,102 L 532.5,96"/>
    <path class="tick" d="M 551.5,102 L 551.5,96"/>
    <path class="tick" d="M 570.5,102 L 570.5,96"/>
    <path class="tick" d="M 589.5,102 L 589.5,90"/>
    <path class="tick" d="M 608.5,102 L 608.5,96"/>
    <path class="tick" d="M 627.5,102 L 627.5,96"/>
    <path class="tick" d="M 646.5,102 L 646.5,96"/>
    <path class="tick" d="M 664.5,102 L 664.5,90"/>
    <path class="tick" d="M 683.5,102 L 683.5,96"/>
    <path class="tick" d="M 702.5,102 L 702.5,96"/>
    <path class="tick" d="M 721.5,102 L 721.5,96"/>
    <path class="tick" d="M 740.5,102 L 740.5,90"/>
    <text x="60" y="82" class="label-numeric label-x">0.0</text>
    <text x="136" y="82" class="label-numeric label-x">0.2</text>
    <text x="211" y="82" class="label-numeric label-x">0.4</text>
    <text x="287" y="82" class="label-numeric label-x">0.6</text>
    <text x="362" y="82" class="label-numeric label-x">0.8</text>
    <text x="438" y="82" class="label-numeric label-x unity">1.0</text>
    <text x="513" y="82" class="label-numeric label-x">1.2</text>
    <text x="589" y="82" class="label-numeric label-x">1.4</text>
    <text x="664" y="82" class="label-numeric label-x">1.6</text>
    <text x="740" y="82" class="label-numeric label-x">1.8</text>
    <text x="400" y="40" class="title">relative file size (level 4)</text>
    <text x="400" y="60" class="subtitle">swift png size / libpng size </text>
    <text x="453.77777777777777" y="120.0" class="label-legend better">indexed8-monochrome-photographic</text>
    <text x="453.77777777777777" y="140.0" class="label-legend better">indexed8-monochrome-nonphotographic</text>
    <text x="453.77777777777777" y="160.0" class="label-legend better">rgb8-monochrome-photographic</text>
    <text x="453.77777777777777" y="180.0" class="label-legend better">rgb8-monochrome-nonphotographic</text>
    <text x="453.77777777777777" y="200.0" class="label-legend better">rgba8-monochrome-photographic</text>
    <text x="453.77777777777777" y="220.0" class="label-legend better">rgba8-monochrome-nonphotographic</text>
    <text x="453.77777777777777" y="240.0" class="label-legend better">indexed8-color-photographic</text>
    <text x="453.77777777777777" y="260.0" class="label-legend better">rgba16-monochrome-nonphotographic</text>
    <text x="453.77777777777777" y="280.0" class="label-legend better">va16-monochrome-nonphotographic</text>
    <text x="453.77777777777777" y="300.0" class="label-legend better">rgba16-monochrome-photographic</text>
    <text x="453.77777777777777" y="320.0" class="label-legend better">rgb16-monochrome-nonphotographic</text>
    <text x="453.77777777777777" y="340.0" class="label-legend better">va16-monochrome-photographic</text>
    <text x="421.77777777777777" y="360.0" class="label-legend worse">rgb16-monochrome-photographic</text>
    <text x="421.77777777777777" y="380.0" class="label-legend worse">va8-monochrome-nonphotographic</text>
    <text x="421.77777777777777" y="400.0" class="label-legend worse">rgba8-color-nonphotographic</text>
    <text x="421.77777777777777" y="420.0" class="label-legend worse">rgba8-color-photographic</text>
    <text x="421.77777777777777" y="440.0" class="label-legend worse">rgb8-color-nonphotographic</text>
    <text x="421.77777777777777" y="460.0" class="label-legend worse">rgb8-color-photographic</text>
    <text x="421.77777777777777" y="480.0" class="label-legend worse">va8-monochrome-photographic</text>
    <text x="421.77777777777777" y="500.0" class="label-legend worse">v8-monochrome-photographic</text>
    <text x="421.77777777777777" y="520.0" class="label-legend worse">v8-monochrome-nonphotographic</text>
    <text x="421.77777777777777" y="540.0" class="label-legend worse">rgba16-color-photographic</text>
    <text x="421.77777777777777" y="560.0" class="label-legend worse">v16-monochrome-nonphotographic</text>
    <text x="421.77777777777777" y="580.0" class="label-legend worse">rgba16-color-nonphotographic</text>
    <text x="421.77777777777777" y="600.0" class="label-legend worse">rgb16-color-photographic</text>
    <text x="421.77777777777777" y="620.0" class="label-legend worse">rgb16-color-nonphotographic</text>
    <text x="421.77777777777777" y="640.0" class="label-legend worse">v16-monochrome-photographic</text>
    <text x="421.77777777777777" y="660.0" class="label-legend worse">indexed8-color-nonphotographic</text>
    <text x="327.1113654845069" y="120.0" class="label-percent better">-25.06 %</text>
    <text x="332.7765299282617" y="140.0" class="label-percent better">-23.56 %</text>
    <text x="339.1076865008676" y="160.0" class="label-percent better">-21.88 %</text>
    <text x="359.4259517705094" y="180.0" class="label-percent better">-16.50 %</text>
    <text x="392.69810046369025" y="200.0" class="label-percent better">-7.70 %</text>
    <text x="402.3067138622694" y="220.0" class="label-percent better">-5.15 %</text>
    <text x="413.0067702593862" y="240.0" class="label-percent better">-2.32 %</text>
    <text x="415.1316366885207" y="260.0" class="label-percent better">-1.76 %</text>
    <text x="415.1316366885207" y="280.0" class="label-percent better">-1.76 %</text>
    <text x="419.6344139679936" y="300.0" class="label-percent better">-0.57 %</text>
    <text x="419.9753811136208" y="320.0" class="label-percent better">-0.48 %</text>
    <text x="421.7411409747237" y="340.0" class="label-percent better">-0.01 %</text>
    <text x="454.1481316879743" y="360.0" class="label-percent worse">+0.10 %</text>
    <text x="455.2581952922932" y="380.0" class="label-percent worse">+0.39 %</text>
    <text x="455.4247760499002" y="400.0" class="label-percent worse">+0.44 %</text>
    <text x="455.65067214873864" y="420.0" class="label-percent worse">+0.50 %</text>
    <text x="456.42940638282903" y="440.0" class="label-percent worse">+0.70 %</text>
    <text x="457.2795533312496" y="460.0" class="label-percent worse">+0.93 %</text>
    <text x="458.0744125694621" y="480.0" class="label-percent worse">+1.14 %</text>
    <text x="458.82824915263654" y="500.0" class="label-percent worse">+1.34 %</text>
    <text x="462.25727407770825" y="520.0" class="label-percent worse">+2.24 %</text>
    <text x="462.9767488977189" y="540.0" class="label-percent worse">+2.44 %</text>
    <text x="463.1519610318618" y="560.0" class="label-percent worse">+2.48 %</text>
    <text x="464.0666827307902" y="580.0" class="label-percent worse">+2.72 %</text>
    <text x="464.12734949683477" y="600.0" class="label-percent worse">+2.74 %</text>
    <text x="464.8910821895871" y="620.0" class="label-percent worse">+2.94 %</text>
    <text x="465.78472982090113" y="640.0" class="label-percent worse">+3.18 %</text>
    <text x="482.7964992116241" y="660.0" class="label-percent worse">+7.68 %</text>
    <path class="stem better" d="M 437.77777777777777,120.0 L 347.1113654845069,120.0"/>
    <path class="stem better" d="M 437.77777777777777,140.0 L 352.7765299282617,140.0"/>
    <path class="stem better" d="M 437.77777777777777,160.0 L 359.1076865008676,160.0"/>
    <path class="stem better" d="M 437.77777777777777,180.0 L 379.4259517705094,180.0"/>
    <path class="stem better" d="M 437.77777777777777,200.0 L 412.69810046369025,200.0"/>
    <path class="stem better" d="M 437.77777777777777,220.0 L 422.3067138622694,220.0"/>
    <path class="stem better" d="M 437.77777777777777,240.0 L 433.0067702593862,240.0"/>
    <path class="stem better" d="M 437.77777777777777,260.0 L 435.1316366885207,260.0"/>
    <path class="stem better" d="M 437.77777777777777,280.0 L 435.1316366885207,280.0"/>
    <path class="stem worse" d="M 437.77777777777777,480.0 L 438.0744125694621,480.0"/>
    <path class="stem worse" d="M 437.77777777777777,500.0 L 438.82824915263654,500.0"/>
    <path class="stem worse" d="M 437.77777777777777,520.0 L 442.25727407770825,520.0"/>
    <path class="stem worse" d="M 437.77777777777777,540.0 L 442.9767488977189,540.0"/>
    <path class="stem worse" d="M 437.77777777777777,560.0 L 443.1519610318618,560.0"/>
    <path class="stem worse" d="M 437.77777777777777,580.0 L 444.0666827307902,580.0"/>
    <path class="stem worse" d="M 437.77777777777777,600.0 L 444.12734949683477,600.0"/>
    <path class="stem worse" d="M 437.77777777777777,620.0 L 444.8910821895871,620.0"/>
    <path class="stem worse" d="M 437.77777777777777,640.0 L 445.78472982090113,640.0"/>
    <path class="stem worse" d="M 437.77777777777777,660.0 L 462.7964992116241,660.0"/>
    <circle class="dot better" cx="343.1113654845069" cy="120.0" r="4"/>
    <circle class="dot better" cx="348.7765299282617" cy="140.0" r="4"/>
    <circle class="dot better" cx="355.1076865008676" cy="160.0" r="4"/>
    <circle class="dot better" cx="375.4259517705094" cy="180.0" r="4"/>
    <circle class="dot better" cx="408.69810046369025" cy="200.0" r="4"/>
    <circle class="dot better" cx="418.3067138622694" cy="220.0" r="4"/>
    <circle class="dot better" cx="429.0067702593862" cy="240.0" r="4"/>
    <circle class="dot better" cx="431.1316366885207" cy="260.0" r="4"/>
    <circle class="dot better" cx="431.1316366885207" cy="280.0" r="4"/>
    <circle class="dot better" cx="435.6344139679936" cy="300.0" r="4"/>
    <circle class="dot better" cx="435.9753811136208" cy="320.0" r="4"/>
    <circle class="dot better" cx="437.7411409747237" cy="340.0" r="4"/>
    <circle class="dot worse" cx="438.1481316879743" cy="360.0" r="4"/>
    <circle class="dot worse" cx="439.2581952922932" cy="380.0" r="4"/>
    <circle class="dot worse" cx="439.4247760499002" cy="400.0" r="4"/>
    <circle class="dot worse" cx="439.65067214873864" cy="420.0" r="4"/>
    <circle class="dot worse" cx="440.42940638282903" cy="440.0" r="4"/>
    <circle class="dot worse" cx="441.2795533312496" cy="460.0" r="4"/>
    <circle class="dot worse" cx="442.0744125694621" cy="480.0" r="4"/>
    <circle class="dot worse" cx="442.82824915263654" cy="500.0" r="4"/>
    <circle class="dot worse" cx="446.25727407770825" cy="520.0" r="4"/>
    <circle class="dot worse" cx="446.9767488977189" cy="540.0" r="4"/>
    <circle class="dot worse" cx="447.1519610318618" cy="560.0" r="4"/>
    <circle class="dot worse" cx="448.0666827307902" cy="580.0" r="4"/>
    <circle class="dot worse" cx="448.12734949683477" cy="600.0" r="4"/>
    <circle class="dot worse" cx="448.8910821895871" cy="620.0" r="4"/>
    <circle class="dot worse" cx="449.78472982090113" cy="640.0" r="4"/>
    <circle class="dot worse" cx="466.7964992116241" cy="660.0" r="4"/>
</svg>
    