<?xml version="1.0" encoding="UTF-8"?>
    <!DOCTYPE svg PUBLIC "-//W3C//DTD SVG 1.1//EN"
  "http://www.w3.org/Graphics/SVG/1.1/DTD/svg11.dtd">
<svg xmlns="http://www.w3.org/2000/svg" xmlns:xlink="http://www.w3.org/1999/xlink" width="800" height="680" viewBox="0 0 800 680">
<style type="text/css" >
    <![CDATA[
        
    rect.background 
    {
        fill:   white;
    }
    
    path.grid 
    {
        stroke-width: 1px;
        fill:   none;
    }
    path.grid-major 
    {
        stroke: #eeeeeeff;
    }
    path.grid-minor 
    {
        stroke: #f5f5f5ff;
    }
    
    path.tick 
    {
        stroke-width: 1px;
        stroke: #333333ff;
        fill:   none;
    }
    
    path.stem 
    {
        stroke-width: 1px;
        stroke-dasharray: 3 3;
    }
    circle.dot 
    {
        stroke-width: 2px;
        stroke: #666;
        fill:   none;
    }
    
    text
    {
        fill: #333333ff;
        font-family: 'SF Mono';
    }
    text.label-numeric 
    {
        font-size: 12px;
    }
    text.label-numeric.unity 
    {
        font-weight: 700;
    }
    text.label-x 
    {
        text-anchor: middle; 
        dominant-baseline: text-top;
    }
    
    text.label-legend, text.label-percent
    {
        font-size: 12px;
        dominant-baseline: middle;
    }
    text.label-percent 
    {
        font-weight: 700;
    }
    text.label-legend.better, text.label-percent.worse 
    {
        text-anchor: begin; 
    }
    text.label-legend.worse, text.label-percent.better 
    {
        text-anchor: end; 
    }
    
    text.title, text.subtitle 
    {
        text-anchor: middle; 
    }
    text.title 
    {
        font-size: 20px;
    }
    text.subtitle 
    {
        font-size: 12px;
    }
    
    circle.better, path.stem.better
    {
        stroke: #ff694eff
    }
    circle.worse, path.stem.worse
    {
        stroke: #888888ff
    }
    text.label-percent.better 
    {
        fill: #ff694eff
    }
    text.label-percent.worse 
    {
        fill: #666666ff
    }
    
    ]]>
</style>
    <rect width="800" height="680" class="background"/>
    <path class="grid grid-minor" d="M 79.5,660 L 79.5,109"/>
    <path class="grid grid-minor" d="M 98.5,660 L 98.5,109"/>
    <path class="grid grid-minor" d="M 117.5,660 L 117.5,109"/>
    <path class="grid grid-minor" d="M 154.5,660 L 154.5,109"/>
    <path class="grid grid-minor" d="M 173.5,660 L 173.5,109"/>
    <path class="grid grid-minor" d="M 192.5,660 L 192.5,109"/>
    <path class="grid grid-minor" d="M 230.5,660 L 230.5,109"/>
    <path class="grid grid-minor" d="M 249.5,660 L 249.5,109"/>
    <path class="grid grid-minor" d="M 268.5,660 L 268.5,109"/>
    <path class="grid grid-minor" d="M 306.5,660 L 306.5,109"/>
    <path class="grid grid-minor" d="M 324.5,660 L 324.5,109"/>
    <path class="grid grid-minor" d="M 343.5,660 L 343.5,109"/>
    <path class="grid grid-minor" d="M 381.5,660 L 381.5,109"/>
    <path class="grid grid-minor" d="M 400.5,660 L 400.5,109"/>
    <path class="grid grid-minor" d="M 419.5,660 L 419.5,109"/>
    <path class="grid grid-minor" d="M 457.5,660 L 457.5,109"/>
    <path class="grid grid-minor" d="M 476.5,660 L 476.5,109"/>
    <path class="grid grid-minor" d="M 494.5,660 L 494.5,109"/>
    <path class="grid grid-minor" d="M 532.5,660 L 532.5,109"/>
    <path class="grid grid-minor" d="M 551.5,660 L 551.5,109"/>
    <path class="grid grid-minor" d="M 570.5,660 L 570.5,109"/>
    <path class="grid grid-minor" d="M 608.5,660 L 608.5,109"/>
    <path class="grid grid-minor" d="M 627.5,660 L 627.5,109"/>
    <path class="grid grid-minor" d="M 646.5,660 L 646.5,109"/>
    <path class="grid grid-minor" d="M 683.5,660 L 683.5,109"/>
    <path class="grid grid-minor" d="M 702.5,660 L 702.5,109"/>
    <path class="grid grid-minor" d="M 721.5,660 L 721.5,109"/>
    <path class="grid grid-major" d="M 60.5,660 L 60.5,109"/>
    <path class="grid grid-major" d="M 136.5,660 L 136.5,109"/>
    <path class="grid grid-major" d="M 211.5,660 L 211.5,109"/>
    <path class="grid grid-major" d="M 287.5,660 L 287.5,109"/>
    <path class="grid grid-major" d="M 362.5,660 L 362.5,109"/>
    <path class="grid grid-major" d="M 438.5,660 L 438.5,109"/>
    <path class="grid grid-major" d="M 513.5,660 L 513.5,109"/>
    <path class="grid grid-major" d="M 589.5,660 L 589.5,109"/>
    <path class="grid grid-major" d="M 664.5,660 L 664.5,109"/>
    <path class="grid grid-major" d="M 740.5,660 L 740.5,109"/>
    <path class="tick" d="M 60.5,102 L 60.5,90"/>
    <path class="tick" d="M 79.5,102 L 79.5,96"/>
    <path class="tick" d="M 98.5,102 L 98.5,96"/>
    <path class="tick" d="M 117.5,102 L 117.5,96"/>
    <path class="tick" d="M 136.5,102 L 136.5,90"/>
    <path class="tick" d="M 154.5,102 L 154.5,96"/>
    <path class="tick" d="M 173.5,102 L 173.5,96"/>
    <path class="tick" d="M 192.5,102 L 192.5,96"/>
    <path class="tick" d="M 211.5,102 L 211.5,90"/>
    <path class="tick" d="M 230.5,102 L 230.5,96"/>
    <path class="tick" d="M 249.5,102 L 249.5,96"/>
    <path class="tick" d="M 268.5,102 L 268.5,96"/>
    <path class="tick" d="M 287.5,102 L 287.5,90"/>
    <path class="tick" d="M 306.5,102 L 306.5,96"/>
    <path class="tick" d="M 324.5,102 L 324.5,96"/>
    <path class="tick" d="M 343.5,102 L 343.5,96"/>
    <path class="tick" d="M 362.5,102 L 362.5,90"/>
    <path class="tick" d="M 381.5,102 L 381.5,96"/>
    <path class="tick" d="M 400.5,102 L 400.5,96"/>
    <path class="tick" d="M 419.5,102 L 419.5,96"/>
    <path class="tick" d="M 438.5,102 L 438.5,90"/>
    <path class="tick" d="M 457.5,102 L 457.5,96"/>
    <path class="tick" d="M 476.5,102 L 476.5,96"/>
    <path class="tick" d="M 494.5,102 L 494.5,96"/>
    <path class="tick" d="M 513.5,102 L 513.5,90"/>
    <path class="tick" d="M 532.5,102 L 532.5,96"/>
    <path class="tick" d="M 551.5,102 L 551.5,96"/>
    <path class="tick" d="M 570.5,102 L 570.5,96"/>
    <path class="tick" d="M 589.5,102 L 589.5,90"/>
    <path class="tick" d="M 608.5,102 L 608.5,96"/>
    <path class="tick" d="M 627.5,102 L 627.5,96"/>
    <path class="tick" d="M 646.5,102 L 646.5,96"/>
    <path class="tick" d="M 664.5,102 L 664.5,90"/>
    <path class="tick" d="M 683.5,102 L 683.5,96"/>
    <path class="tick" d="M 702.5,102 L 702.5,96"/>
    <path class="tick" d="M 721.5,102 L 721.5,96"/>
    <path class="tick" d="M 740.5,102 L 740.5,90"/>
    <text x="60" y="82" class="label-numeric label-x">0.0</text>
    <text x="136" y="82" class="label-numeric label-x">0.2</text>
    <text x="211" y="82" class="label-numeric label-x">0.4</text>
    <text x="287" y="82" class="label-numeric label-x">0.6</text>
    <text x="362" y="82" class="label-numeric label-x">0.8</text>
    <text x="438" y="82" class="label-numeric label-x unity">1.0</text>
    <text x="513" y="82" class="label-numeric label-x">1.2</text>
    <text x="589" y="82" class="label-numeric label-x">1.4</text>
    <text x="664" y="82" class="label-numeric label-x">1.6</text>
    <text x="740" y="82" class="label-numeric label-x">1.8</text>
    <text x="400" y="40" class="title">relative file size (level 13)</text>
    <text x="400" y="60" class="subtitle">swift png size / best libpng size </text>
    <text x="453.77777777777777" y="120.0" class="label-legend better">rgb16-monochrome-photographic</text>
    <text x="453.77777777777777" y="140.0" class="label-legend better">rgba16-monochrome-photographic</text>
    <text x="453.77777777777777" y="160.0" class="label-legend better">rgb16-monochrome-nonphotographic</text>
    <text x="453.77777777777777" y="180.0" class="label-legend better">indexed8-monochrome-photographic</text>
    <text x="453.77777777777777" y="200.0" class="label-legend better">indexed8-monochrome-nonphotographic</text>
    <text x="453.77777777777777" y="220.0" class="label-legend better">rgba8-monochrome-nonphotographic</text>
    <text x="453.77777777777777" y="240.0" class="label-legend better">rgba8-monochrome-photographic</text>
    <text x="453.77777777777777" y="260.0" class="label-legend better">va8-monochrome-photographic</text>
    <text x="453.77777777777777" y="280.0" class="label-legend better">rgb8-monochrome-nonphotographic</text>
    <text x="453.77777777777777" y="300.0" class="label-legend better">va8-monochrome-nonphotographic</text>
    <text x="453.77777777777777" y="320.0" class="label-legend better">rgba16-monochrome-nonphotographic</text>
    <text x="453.77777777777777" y="340.0" class="label-legend better">va16-monochrome-nonphotographic</text>
    <text x="453.77777777777777" y="360.0" class="label-legend better">rgba8-color-photographic</text>
    <text x="453.77777777777777" y="380.0" class="label-legend better">rgb8-monochrome-photographic</text>
    <text x="453.77777777777777" y="400.0" class="label-legend better">v16-monochrome-nonphotographic</text>
    <text x="453.77777777777777" y="420.0" class="label-legend better">indexed8-color-photographic</text>
    <text x="453.77777777777777" y="440.0" class="label-legend better">rgba8-color-nonphotographic</text>
    <text x="453.77777777777777" y="460.0" class="label-legend better">rgb16-color-photographic</text>
    <text x="453.77777777777777" y="480.0" class="label-legend better">rgb16-color-nonphotographic</text>
    <text x="453.77777777777777" y="500.0" class="label-legend better">rgba16-color-nonphotographic</text>
    <text x="453.77777777777777" y="520.0" class="label-legend better">rgba16-color-photographic</text>
    <text x="453.77777777777777" y="540.0" class="label-legend better">va16-monochrome-photographic</text>
    <text x="453.77777777777777" y="560.0" class="label-legend better">rgb8-color-photographic</text>
    <text x="453.77777777777777" y="580.0" class="label-legend better">rgb8-color-nonphotographic</text>
    <text x="453.77777777777777" y="600.0" class="label-legend better">v16-monochrome-photographic</text>
    <text x="421.77777777777777" y="620.0" class="label-legend worse">v8-monochrome-nonphotographic</text>
    <text x="421.77777777777777" y="640.0" class="label-legend worse">v8-monochrome-photographic</text>
    <text x="421.77777777777777" y="660.0" class="label-legend worse">indexed8-color-nonphotographic</text>
    <text x="266.8633092976969" y="120.0" class="label-percent better">-41.01 %</text>
    <text x="271.0288366846845" y="140.0" class="label-percent better">-39.90 %</text>
    <text x="280.2889124697898" y="160.0" class="label-percent better">-37.45 %</text>
    <text x="324.6317620568846" y="180.0" class="label-percent better">-25.72 %</text>
    <text x="325.42906613521035" y="200.0" class="label-percent better">-25.50 %</text>
    <text x="354.0277189839367" y="220.0" class="label-percent better">-17.93 %</text>
    <text x="359.29546705717155" y="240.0" class="label-percent better">-16.54 %</text>
    <text x="397.629318883645" y="260.0" class="label-percent better">-6.39 %</text>
    <text x="401.33017844819085" y="280.0" class="label-percent better">-5.41 %</text>
    <text x="401.4952875425775" y="300.0" class="label-percent better">-5.37 %</text>
    <text x="403.2241868435984" y="320.0" class="label-percent better">-4.91 %</text>
    <text x="403.2241868435984" y="340.0" class="label-percent better">-4.91 %</text>
    <text x="403.7420446135955" y="360.0" class="label-percent better">-4.77 %</text>
    <text x="405.5004461445025" y="380.0" class="label-percent better">-4.31 %</text>
    <text x="406.32321840446923" y="400.0" class="label-percent better">-4.09 %</text>
    <text x="406.3406172217387" y="420.0" class="label-percent better">-4.09 %</text>
    <text x="407.10841765498526" y="440.0" class="label-percent better">-3.88 %</text>
    <text x="407.85219169238724" y="460.0" class="label-percent better">-3.69 %</text>
    <text x="408.3899190728375" y="480.0" class="label-percent better">-3.54 %</text>
    <text x="408.44088431931056" y="500.0" class="label-percent better">-3.53 %</text>
    <text x="408.5299606971624" y="520.0" class="label-percent better">-3.51 %</text>
    <text x="412.30552670611365" y="540.0" class="label-percent better">-2.51 %</text>
    <text x="413.2294550457008" y="560.0" class="label-percent better">-2.26 %</text>
    <text x="414.5140999953205" y="580.0" class="label-percent better">-1.92 %</text>
    <text x="418.33302818695137" y="600.0" class="label-percent better">-0.91 %</text>
    <text x="455.11043786414706" y="620.0" class="label-percent worse">+0.35 %</text>
    <text x="456.5853591401689" y="640.0" class="label-percent worse">+0.74 %</text>
    <text x="471.7477571373102" y="660.0" class="label-percent worse">+4.76 %</text>
    <path class="stem better" d="M 437.77777777777777,120.0 L 286.8633092976969,120.0"/>
    <path class="stem better" d="M 437.77777777777777,140.0 L 291.0288366846845,140.0"/>
    <path class="stem better" d="M 437.77777777777777,160.0 L 300.2889124697898,160.0"/>
    <path class="stem better" d="M 437.77777777777777,180.0 L 344.6317620568846,180.0"/>
    <path class="stem better" d="M 437.77777777777777,200.0 L 345.42906613521035,200.0"/>
    <path class="stem better" d="M 437.77777777777777,220.0 L 374.0277189839367,220.0"/>
    <path class="stem better" d="M 437.77777777777777,240.0 L 379.29546705717155,240.0"/>
    <path class="stem better" d="M 437.77777777777777,260.0 L 417.629318883645,260.0"/>
    <path class="stem better" d="M 437.77777777777777,280.0 L 421.33017844819085,280.0"/>
    <path class="stem better" d="M 437.77777777777777,300.0 L 421.4952875425775,300.0"/>
    <path class="stem better" d="M 437.77777777777777,320.0 L 423.2241868435984,320.0"/>
    <path class="stem better" d="M 437.77777777777777,340.0 L 423.2241868435984,340.0"/>
    <path class="stem better" d="M 437.77777777777777,360.0 L 423.7420446135955,360.0"/>
    <path class="stem better" d="M 437.77777777777777,380.0 L 425.5004461445025,380.0"/>
    <path class="stem better" d="M 437.77777777777777,400.0 L 426.32321840446923,400.0"/>
    <path class="stem better" d="M 437.77777777777777,420.0 L 426.3406172217387,420.0"/>
    <path class="stem better" d="M 437.77777777777777,440.0 L 427.10841765498526,440.0"/>
    <path class="stem better" d="M 437.77777777777777,460.0 L 427.85219169238724,460.0"/>
    <path class="stem better" d="M 437.77777777777777,480.0 L 428.3899190728375,480.0"/>
    <path class="stem better" d="M 437.77777777777777,500.0 L 428.44088431931056,500.0"/>
    <path class="stem better" d="M 437.77777777777777,520.0 L 428.5299606971624,520.0"/>
    <path class="stem better" d="M 437.77777777777777,540.0 L 432.30552670611365,540.0"/>
    <path class="stem better" d="M 437.77777777777777,560.0 L 433.2294550457008,560.0"/>
    <path class="stem better" d="M 437.77777777777777,580.0 L 434.5140999953205,580.0"/>
    <path class="stem worse" d="M 437.77777777777777,660.0 L 451.7477571373102,660.0"/>
    <circle class="dot better" cx="282.8633092976969" cy="120.0" r="4"/>
    <circle class="dot better" cx="287.0288366846845" cy="140.0" r="4"/>
    <circle class="dot better" cx="296.2889124697898" cy="160.0" r="4"/>
    <circle class="dot better" cx="340.6317620568846" cy="180.0" r="4"/>
    <circle class="dot better" cx="341.42906613521035" cy="200.0" r="4"/>
    <circle class="dot better" cx="370.0277189839367" cy="220.0" r="4"/>
    <circle class="dot better" cx="375.29546705717155" cy="240.0" r="4"/>
    <circle class="dot better" cx="413.629318883645" cy="260.0" r="4"/>
    <circle class="dot better" cx="417.33017844819085" cy="280.0" r="4"/>
    <circle class="dot better" cx="417.4952875425775" cy="300.0" r="4"/>
    <circle class="dot better" cx="419.2241868435984" cy="320.0" r="4"/>
    <circle class="dot better" cx="419.2241868435984" cy="340.0" r="4"/>
    <circle class="dot better" cx="419.7420446135955" cy="360.0" r="4"/>
    <circle class="dot better" cx="421.5004461445025" cy="380.0" r="4"/>
    <circle class="dot better" cx="422.32321840446923" cy="400.0" r="4"/>
    <circle class="dot better" cx="422.3406172217387" cy="420.0" r="4"/>
    <circle class="dot better" cx="423.10841765498526" cy="440.0" r="4"/>
    <circle class="dot better" cx="423.85219169238724" cy="460.0" r="4"/>
    <circle class="dot better" cx="424.3899190728375" cy="480.0" r="4"/>
    <circle class="dot better" cx="424.44088431931056" cy="500.0" r="4"/>
    <circle class="dot better" cx="424.5299606971624" cy="520.0" r="4"/>
    <circle class="dot better" cx="428.30552670611365" cy="540.0" r="4"/>
    <circle class="dot better" cx="429.2294550457008" cy="560.0" r="4"/>
    <circle class="dot better" cx="430.5140999953205" cy="580.0" r="4"/>
    <circle class="dot better" cx="434.33302818695137" cy="600.0" r="4"/>
    <circle class="dot worse" cx="439.11043786414706" cy="620.0" r="4"/>
    <circle class="dot worse" cx="440.5853591401689" cy="640.0" r="4"/>
    <circle class="dot worse" cx="455.7477571373102" cy="660.0" r="4"/>
</svg>
    