<?xml version="1.0" encoding="UTF-8"?>
    <!DOCTYPE svg PUBLIC "-//W3C//DTD SVG 1.1//EN"
  "http://www.w3.org/Graphics/SVG/1.1/DTD/svg11.dtd">
<svg xmlns="http://www.w3.org/2000/svg" xmlns:xlink="http://www.w3.org/1999/xlink" width="800" height="680" viewBox="0 0 800 680">
<style type="text/css" >
    <![CDATA[
        
    rect.background 
    {
        fill:   white;
    }
    
    path.grid 
    {
        stroke-width: 1px;
        fill:   none;
    }
    path.grid-major 
    {
        stroke: #eeeeeeff;
    }
    path.grid-minor 
    {
        stroke: #f5f5f5ff;
    }
    
    path.tick 
    {
        stroke-width: 1px;
        stroke: #333333ff;
        fill:   none;
    }
    
    path.stem 
    {
        stroke-width: 1px;
        stroke-dasharray: 3 3;
    }
    circle.dot 
    {
        stroke-width: 2px;
        stroke: #666;
        fill:   none;
    }
    
    text
    {
        fill: #333333ff;
        font-family: 'SF Mono';
    }
    text.label-numeric 
    {
        font-size: 12px;
    }
    text.label-numeric.unity 
    {
        font-weight: 700;
    }
    text.label-x 
    {
        text-anchor: middle; 
        dominant-baseline: text-top;
    }
    
    text.label-legend, text.label-percent
    {
        font-size: 12px;
        dominant-baseline: middle;
    }
    text.label-percent 
    {
        font-weight: 700;
    }
    text.label-legend.better, text.label-percent.worse 
    {
        text-anchor: begin; 
    }
    text.label-legend.worse, text.label-percent.better 
    {
        text-anchor: end; 
    }
    
    text.title, text.subtitle 
    {
        text-anchor: middle; 
    }
    text.title 
    {
        font-size: 20px;
    }
    text.subtitle 
    {
        font-size: 12px;
    }
    
    circle.better, path.stem.better
    {
        stroke: #ff694eff
    }
    circle.worse, path.stem.worse
    {
        stroke: #888888ff
    }
    text.label-percent.better 
    {
        fill: #ff694eff
    }
    text.label-percent.worse 
    {
        fill: #666666ff
    }
    
    ]]>
</style>
    <rect width="800" height="680" class="background"/>
    <path class="grid grid-minor" d="M 79.5,660 L 79.5,109"/>
    <path class="grid grid-minor" d="M 98.5,660 L 98.5,109"/>
    <path class="grid grid-minor" d="M 117.5,660 L 117.5,109"/>
    <path class="grid grid-minor" d="M 154.5,660 L 154.5,109"/>
    <path class="grid grid-minor" d="M 173.5,660 L 173.5,109"/>
    <path class="grid grid-minor" d="M 192.5,660 L 192.5,109"/>
    <path class="grid grid-minor" d="M 230.5,660 L 230.5,109"/>
    <path class="grid grid-minor" d="M 249.5,660 L 249.5,109"/>
    <path class="grid grid-minor" d="M 268.5,660 L 268.5,109"/>
    <path class="grid grid-minor" d="M 306.5,660 L 306.5,109"/>
    <path class="grid grid-minor" d="M 324.5,660 L 324.5,109"/>
    <path class="grid grid-minor" d="M 343.5,660 L 343.5,109"/>
    <path class="grid grid-minor" d="M 381.5,660 L 381.5,109"/>
    <path class="grid grid-minor" d="M 400.5,660 L 400.5,109"/>
    <path class="grid grid-minor" d="M 419.5,660 L 419.5,109"/>
    <path class="grid grid-minor" d="M 457.5,660 L 457.5,109"/>
    <path class="grid grid-minor" d="M 476.5,660 L 476.5,109"/>
    <path class="grid grid-minor" d="M 494.5,660 L 494.5,109"/>
    <path class="grid grid-minor" d="M 532.5,660 L 532.5,109"/>
    <path class="grid grid-minor" d="M 551.5,660 L 551.5,109"/>
    <path class="grid grid-minor" d="M 570.5,660 L 570.5,109"/>
    <path class="grid grid-minor" d="M 608.5,660 L 608.5,109"/>
    <path class="grid grid-minor" d="M 627.5,660 L 627.5,109"/>
    <path class="grid grid-minor" d="M 646.5,660 L 646.5,109"/>
    <path class="grid grid-minor" d="M 683.5,660 L 683.5,109"/>
    <path class="grid grid-minor" d="M 702.5,660 L 702.5,109"/>
    <path class="grid grid-minor" d="M 721.5,660 L 721.5,109"/>
    <path class="grid grid-major" d="M 60.5,660 L 60.5,109"/>
    <path class="grid grid-major" d="M 136.5,660 L 136.5,109"/>
    <path class="grid grid-major" d="M 211.5,660 L 211.5,109"/>
    <path class="grid grid-major" d="M 287.5,660 L 287.5,109"/>
    <path class="grid grid-major" d="M 362.5,660 L 362.5,109"/>
    <path class="grid grid-major" d="M 438.5,660 L 438.5,109"/>
    <path class="grid grid-major" d="M 513.5,660 L 513.5,109"/>
    <path class="grid grid-major" d="M 589.5,660 L 589.5,109"/>
    <path class="grid grid-major" d="M 664.5,660 L 664.5,109"/>
    <path class="grid grid-major" d="M 740.5,660 L 740.5,109"/>
    <path class="tick" d="M 60.5,102 L 60.5,90"/>
    <path class="tick" d="M 79.5,102 L 79.5,96"/>
    <path class="tick" d="M 98.5,102 L 98.5,96"/>
    <path class="tick" d="M 117.5,102 L 117.5,96"/>
    <path class="tick" d="M 136.5,102 L 136.5,90"/>
    <path class="tick" d="M 154.5,102 L 154.5,96"/>
    <path class="tick" d="M 173.5,102 L 173.5,96"/>
    <path class="tick" d="M 192.5,102 L 192.5,96"/>
    <path class="tick" d="M 211.5,102 L 211.5,90"/>
    <path class="tick" d="M 230.5,102 L 230.5,96"/>
    <path class="tick" d="M 249.5,102 L 249.5,96"/>
    <path class="tick" d="M 268.5,102 L 268.5,96"/>
    <path class="tick" d="M 287.5,102 L 287.5,90"/>
    <path class="tick" d="M 306.5,102 L 306.5,96"/>
    <path class="tick" d="M 324.5,102 L 324.5,96"/>
    <path class="tick" d="M 343.5,102 L 343.5,96"/>
    <path class="tick" d="M 362.5,102 L 362.5,90"/>
    <path class="tick" d="M 381.5,102 L 381.5,96"/>
    <path class="tick" d="M 400.5,102 L 400.5,96"/>
    <path class="tick" d="M 419.5,102 L 419.5,96"/>
    <path class="tick" d="M 438.5,102 L 438.5,90"/>
    <path class="tick" d="M 457.5,102 L 457.5,96"/>
    <path class="tick" d="M 476.5,102 L 476.5,96"/>
    <path class="tick" d="M 494.5,102 L 494.5,96"/>
    <path class="tick" d="M 513.5,102 L 513.5,90"/>
    <path class="tick" d="M 532.5,102 L 532.5,96"/>
    <path class="tick" d="M 551.5,102 L 551.5,96"/>
    <path class="tick" d="M 570.5,102 L 570.5,96"/>
    <path class="tick" d="M 589.5,102 L 589.5,90"/>
    <path class="tick" d="M 608.5,102 L 608.5,96"/>
    <path class="tick" d="M 627.5,102 L 627.5,96"/>
    <path class="tick" d="M 646.5,102 L 646.5,96"/>
    <path class="tick" d="M 664.5,102 L 664.5,90"/>
    <path class="tick" d="M 683.5,102 L 683.5,96"/>
    <path class="tick" d="M 702.5,102 L 702.5,96"/>
    <path class="tick" d="M 721.5,102 L 721.5,96"/>
    <path class="tick" d="M 740.5,102 L 740.5,90"/>
    <text x="60" y="82" class="label-numeric label-x">0.0</text>
    <text x="136" y="82" class="label-numeric label-x">0.2</text>
    <text x="211" y="82" class="label-numeric label-x">0.4</text>
    <text x="287" y="82" class="label-numeric label-x">0.6</text>
    <text x="362" y="82" class="label-numeric label-x">0.8</text>
    <text x="438" y="82" class="label-numeric label-x unity">1.0</text>
    <text x="513" y="82" class="label-numeric label-x">1.2</text>
    <text x="589" y="82" class="label-numeric label-x">1.4</text>
    <text x="664" y="82" class="label-numeric label-x">1.6</text>
    <text x="740" y="82" class="label-numeric label-x">1.8</text>
    <text x="400" y="40" class="title">relative file size (level 12)</text>
    <text x="400" y="60" class="subtitle">swift png size / best libpng size </text>
    <text x="453.77777777777777" y="120.0" class="label-legend better">rgb16-monochrome-photographic</text>
    <text x="453.77777777777777" y="140.0" class="label-legend better">rgba16-monochrome-photographic</text>
    <text x="453.77777777777777" y="160.0" class="label-legend better">rgb16-monochrome-nonphotographic</text>
    <text x="453.77777777777777" y="180.0" class="label-legend better">indexed8-monochrome-photographic</text>
    <text x="453.77777777777777" y="200.0" class="label-legend better">indexed8-monochrome-nonphotographic</text>
    <text x="453.77777777777777" y="220.0" class="label-legend better">rgba8-monochrome-photographic</text>
    <text x="453.77777777777777" y="240.0" class="label-legend better">rgba8-monochrome-nonphotographic</text>
    <text x="453.77777777777777" y="260.0" class="label-legend better">va8-monochrome-photographic</text>
    <text x="453.77777777777777" y="280.0" class="label-legend better">rgba8-color-photographic</text>
    <text x="453.77777777777777" y="300.0" class="label-legend better">indexed8-color-photographic</text>
    <text x="453.77777777777777" y="320.0" class="label-legend better">va8-monochrome-nonphotographic</text>
    <text x="453.77777777777777" y="340.0" class="label-legend better">rgba16-monochrome-nonphotographic</text>
    <text x="453.77777777777777" y="360.0" class="label-legend better">va16-monochrome-nonphotographic</text>
    <text x="453.77777777777777" y="380.0" class="label-legend better">rgb8-monochrome-nonphotographic</text>
    <text x="453.77777777777777" y="400.0" class="label-legend better">rgb8-monochrome-photographic</text>
    <text x="453.77777777777777" y="420.0" class="label-legend better">v16-monochrome-nonphotographic</text>
    <text x="453.77777777777777" y="440.0" class="label-legend better">rgb16-color-photographic</text>
    <text x="453.77777777777777" y="460.0" class="label-legend better">rgba16-color-photographic</text>
    <text x="453.77777777777777" y="480.0" class="label-legend better">rgba16-color-nonphotographic</text>
    <text x="453.77777777777777" y="500.0" class="label-legend better">rgb16-color-nonphotographic</text>
    <text x="453.77777777777777" y="520.0" class="label-legend better">rgba8-color-nonphotographic</text>
    <text x="453.77777777777777" y="540.0" class="label-legend better">va16-monochrome-photographic</text>
    <text x="453.77777777777777" y="560.0" class="label-legend better">rgb8-color-photographic</text>
    <text x="453.77777777777777" y="580.0" class="label-legend better">rgb8-color-nonphotographic</text>
    <text x="453.77777777777777" y="600.0" class="label-legend better">v16-monochrome-photographic</text>
    <text x="421.77777777777777" y="620.0" class="label-legend worse">v8-monochrome-photographic</text>
    <text x="421.77777777777777" y="640.0" class="label-legend worse">v8-monochrome-nonphotographic</text>
    <text x="421.77777777777777" y="660.0" class="label-legend worse">indexed8-color-nonphotographic</text>
    <text x="267.5857558740182" y="120.0" class="label-percent better">-40.82 %</text>
    <text x="272.92170816788337" y="140.0" class="label-percent better">-39.40 %</text>
    <text x="284.3115956576545" y="160.0" class="label-percent better">-36.39 %</text>
    <text x="324.69624969178705" y="180.0" class="label-percent better">-25.70 %</text>
    <text x="326.52837495936336" y="200.0" class="label-percent better">-25.21 %</text>
    <text x="367.1136634018796" y="220.0" class="label-percent better">-14.47 %</text>
    <text x="368.6989623217358" y="240.0" class="label-percent better">-14.05 %</text>
    <text x="401.3536095088271" y="260.0" class="label-percent better">-5.41 %</text>
    <text x="404.74157368163077" y="280.0" class="label-percent better">-4.51 %</text>
    <text x="406.2079360958833" y="300.0" class="label-percent better">-4.12 %</text>
    <text x="406.280131250666" y="320.0" class="label-percent better">-4.10 %</text>
    <text x="406.5023641072552" y="340.0" class="label-percent better">-4.04 %</text>
    <text x="406.5023641072552" y="360.0" class="label-percent better">-4.04 %</text>
    <text x="407.19629300995757" y="380.0" class="label-percent better">-3.86 %</text>
    <text x="407.7583357783742" y="400.0" class="label-percent better">-3.71 %</text>
    <text x="408.42077599724047" y="420.0" class="label-percent better">-3.54 %</text>
    <text x="408.73459880522483" y="440.0" class="label-percent better">-3.45 %</text>
    <text x="409.63989718158183" y="460.0" class="label-percent better">-3.21 %</text>
    <text x="410.665455548148" y="480.0" class="label-percent better">-2.94 %</text>
    <text x="410.7429303949743" y="500.0" class="label-percent better">-2.92 %</text>
    <text x="411.5485392686103" y="520.0" class="label-percent better">-2.71 %</text>
    <text x="412.75727191207744" y="540.0" class="label-percent better">-2.39 %</text>
    <text x="413.55673616449985" y="560.0" class="label-percent better">-2.18 %</text>
    <text x="417.16095988020635" y="580.0" class="label-percent better">-1.22 %</text>
    <text x="418.39304871498064" y="600.0" class="label-percent better">-0.90 %</text>
    <text x="456.40830445965776" y="620.0" class="label-percent worse">+0.70 %</text>
    <text x="457.04671457787185" y="640.0" class="label-percent worse">+0.87 %</text>
    <text x="473.7106451678826" y="660.0" class="label-percent worse">+5.28 %</text>
    <path class="stem better" d="M 437.77777777777777,120.0 L 287.5857558740182,120.0"/>
    <path class="stem better" d="M 437.77777777777777,140.0 L 292.92170816788337,140.0"/>
    <path class="stem better" d="M 437.77777777777777,160.0 L 304.3115956576545,160.0"/>
    <path class="stem better" d="M 437.77777777777777,180.0 L 344.69624969178705,180.0"/>
    <path class="stem better" d="M 437.77777777777777,200.0 L 346.52837495936336,200.0"/>
    <path class="stem better" d="M 437.77777777777777,220.0 L 387.1136634018796,220.0"/>
    <path class="stem better" d="M 437.77777777777777,240.0 L 388.6989623217358,240.0"/>
    <path class="stem better" d="M 437.77777777777777,260.0 L 421.3536095088271,260.0"/>
    <path class="stem better" d="M 437.77777777777777,280.0 L 424.74157368163077,280.0"/>
    <path class="stem better" d="M 437.77777777777777,300.0 L 426.2079360958833,300.0"/>
    <path class="stem better" d="M 437.77777777777777,320.0 L 426.280131250666,320.0"/>
    <path class="stem better" d="M 437.77777777777777,340.0 L 426.5023641072552,340.0"/>
    <path class="stem better" d="M 437.77777777777777,360.0 L 426.5023641072552,360.0"/>
    <path class="stem better" d="M 437.77777777777777,380.0 L 427.19629300995757,380.0"/>
    <path class="stem better" d="M 437.77777777777777,400.0 L 427.7583357783742,400.0"/>
    <path class="stem better" d="M 437.77777777777777,420.0 L 428.42077599724047,420.0"/>
    <path class="stem better" d="M 437.77777777777777,440.0 L 428.73459880522483,440.0"/>
    <path class="stem better" d="M 437.77777777777777,460.0 L 429.63989718158183,460.0"/>
    <path class="stem better" d="M 437.77777777777777,480.0 L 430.665455548148,480.0"/>
    <path class="stem better" d="M 437.77777777777777,500.0 L 430.7429303949743,500.0"/>
    <path class="stem better" d="M 437.77777777777777,520.0 L 431.5485392686103,520.0"/>
    <path class="stem better" d="M 437.77777777777777,540.0 L 432.75727191207744,540.0"/>
    <path class="stem better" d="M 437.77777777777777,560.0 L 433.55673616449985,560.0"/>
    <path class="stem better" d="M 437.77777777777777,580.0 L 437.16095988020635,580.0"/>
    <path class="stem worse" d="M 437.77777777777777,660.0 L 453.7106451678826,660.0"/>
    <circle class="dot better" cx="283.5857558740182" cy="120.0" r="4"/>
    <circle class="dot better" cx="288.92170816788337" cy="140.0" r="4"/>
    <circle class="dot better" cx="300.3115956576545" cy="160.0" r="4"/>
    <circle class="dot better" cx="340.69624969178705" cy="180.0" r="4"/>
    <circle class="dot better" cx="342.52837495936336" cy="200.0" r="4"/>
    <circle class="dot better" cx="383.1136634018796" cy="220.0" r="4"/>
    <circle class="dot better" cx="384.6989623217358" cy="240.0" r="4"/>
    <circle class="dot better" cx="417.3536095088271" cy="260.0" r="4"/>
    <circle class="dot better" cx="420.74157368163077" cy="280.0" r="4"/>
    <circle class="dot better" cx="422.2079360958833" cy="300.0" r="4"/>
    <circle class="dot better" cx="422.280131250666" cy="320.0" r="4"/>
    <circle class="dot better" cx="422.5023641072552" cy="340.0" r="4"/>
    <circle class="dot better" cx="422.5023641072552" cy="360.0" r="4"/>
    <circle class="dot better" cx="423.19629300995757" cy="380.0" r="4"/>
    <circle class="dot better" cx="423.7583357783742" cy="400.0" r="4"/>
    <circle class="dot better" cx="424.42077599724047" cy="420.0" r="4"/>
    <circle class="dot better" cx="424.73459880522483" cy="440.0" r="4"/>
    <circle class="dot better" cx="425.63989718158183" cy="460.0" r="4"/>
    <circle class="dot better" cx="426.665455548148" cy="480.0" r="4"/>
    <circle class="dot better" cx="426.7429303949743" cy="500.0" r="4"/>
    <circle class="dot better" cx="427.5485392686103" cy="520.0" r="4"/>
    <circle class="dot better" cx="428.75727191207744" cy="540.0" r="4"/>
    <circle class="dot better" cx="429.55673616449985" cy="560.0" r="4"/>
    <circle class="dot better" cx="433.16095988020635" cy="580.0" r="4"/>
    <circle class="dot better" cx="434.39304871498064" cy="600.0" r="4"/>
    <circle class="dot worse" cx="440.40830445965776" cy="620.0" r="4"/>
    <circle class="dot worse" cx="441.04671457787185" cy="640.0" r="4"/>
    <circle class="dot worse" cx="457.7106451678826" cy="660.0" r="4"/>
</svg>
    