<?xml version="1.0" encoding="UTF-8"?>
    <!DOCTYPE svg PUBLIC "-//W3C//DTD SVG 1.1//EN"
  "http://www.w3.org/Graphics/SVG/1.1/DTD/svg11.dtd">
<svg xmlns="http://www.w3.org/2000/svg" xmlns:xlink="http://www.w3.org/1999/xlink" width="800" height="680" viewBox="0 0 800 680">
<style type="text/css" >
    <![CDATA[
        
    rect.background 
    {
        fill:   white;
    }
    
    path.grid 
    {
        stroke-width: 1px;
        fill:   none;
    }
    path.grid-major 
    {
        stroke: #eeeeeeff;
    }
    path.grid-minor 
    {
        stroke: #f5f5f5ff;
    }
    
    path.tick 
    {
        stroke-width: 1px;
        stroke: #333333ff;
        fill:   none;
    }
    
    path.stem 
    {
        stroke-width: 1px;
        stroke-dasharray: 3 3;
    }
    circle.dot 
    {
        stroke-width: 2px;
        stroke: #666;
        fill:   none;
    }
    
    text
    {
        fill: #333333ff;
        font-family: 'SF Mono';
    }
    text.label-numeric 
    {
        font-size: 12px;
    }
    text.label-numeric.unity 
    {
        font-weight: 700;
    }
    text.label-x 
    {
        text-anchor: middle; 
        dominant-baseline: text-top;
    }
    
    text.label-legend, text.label-percent
    {
        font-size: 12px;
        dominant-baseline: middle;
    }
    text.label-percent 
    {
        font-weight: 700;
    }
    text.label-legend.better, text.label-percent.worse 
    {
        text-anchor: begin; 
    }
    text.label-legend.worse, text.label-percent.better 
    {
        text-anchor: end; 
    }
    
    text.title, text.subtitle 
    {
        text-anchor: middle; 
    }
    text.title 
    {
        font-size: 20px;
    }
    text.subtitle 
    {
        font-size: 12px;
    }
    
    circle.better, path.stem.better
    {
        stroke: #ff694eff
    }
    circle.worse, path.stem.worse
    {
        stroke: #888888ff
    }
    text.label-percent.better 
    {
        fill: #ff694eff
    }
    text.label-percent.worse 
    {
        fill: #666666ff
    }
    
    ]]>
</style>
    <rect width="800" height="680" class="background"/>
    <path class="grid grid-minor" d="M 79.5,660 L 79.5,109"/>
    <path class="grid grid-minor" d="M 98.5,660 L 98.5,109"/>
    <path class="grid grid-minor" d="M 117.5,660 L 117.5,109"/>
    <path class="grid grid-minor" d="M 154.5,660 L 154.5,109"/>
    <path class="grid grid-minor" d="M 173.5,660 L 173.5,109"/>
    <path class="grid grid-minor" d="M 192.5,660 L 192.5,109"/>
    <path class="grid grid-minor" d="M 230.5,660 L 230.5,109"/>
    <path class="grid grid-minor" d="M 249.5,660 L 249.5,109"/>
    <path class="grid grid-minor" d="M 268.5,660 L 268.5,109"/>
    <path class="grid grid-minor" d="M 306.5,660 L 306.5,109"/>
    <path class="grid grid-minor" d="M 324.5,660 L 324.5,109"/>
    <path class="grid grid-minor" d="M 343.5,660 L 343.5,109"/>
    <path class="grid grid-minor" d="M 381.5,660 L 381.5,109"/>
    <path class="grid grid-minor" d="M 400.5,660 L 400.5,109"/>
    <path class="grid grid-minor" d="M 419.5,660 L 419.5,109"/>
    <path class="grid grid-minor" d="M 457.5,660 L 457.5,109"/>
    <path class="grid grid-minor" d="M 476.5,660 L 476.5,109"/>
    <path class="grid grid-minor" d="M 494.5,660 L 494.5,109"/>
    <path class="grid grid-minor" d="M 532.5,660 L 532.5,109"/>
    <path class="grid grid-minor" d="M 551.5,660 L 551.5,109"/>
    <path class="grid grid-minor" d="M 570.5,660 L 570.5,109"/>
    <path class="grid grid-minor" d="M 608.5,660 L 608.5,109"/>
    <path class="grid grid-minor" d="M 627.5,660 L 627.5,109"/>
    <path class="grid grid-minor" d="M 646.5,660 L 646.5,109"/>
    <path class="grid grid-minor" d="M 683.5,660 L 683.5,109"/>
    <path class="grid grid-minor" d="M 702.5,660 L 702.5,109"/>
    <path class="grid grid-minor" d="M 721.5,660 L 721.5,109"/>
    <path class="grid grid-major" d="M 60.5,660 L 60.5,109"/>
    <path class="grid grid-major" d="M 136.5,660 L 136.5,109"/>
    <path class="grid grid-major" d="M 211.5,660 L 211.5,109"/>
    <path class="grid grid-major" d="M 287.5,660 L 287.5,109"/>
    <path class="grid grid-major" d="M 362.5,660 L 362.5,109"/>
    <path class="grid grid-major" d="M 438.5,660 L 438.5,109"/>
    <path class="grid grid-major" d="M 513.5,660 L 513.5,109"/>
    <path class="grid grid-major" d="M 589.5,660 L 589.5,109"/>
    <path class="grid grid-major" d="M 664.5,660 L 664.5,109"/>
    <path class="grid grid-major" d="M 740.5,660 L 740.5,109"/>
    <path class="tick" d="M 60.5,102 L 60.5,90"/>
    <path class="tick" d="M 79.5,102 L 79.5,96"/>
    <path class="tick" d="M 98.5,102 L 98.5,96"/>
    <path class="tick" d="M 117.5,102 L 117.5,96"/>
    <path class="tick" d="M 136.5,102 L 136.5,90"/>
    <path class="tick" d="M 154.5,102 L 154.5,96"/>
    <path class="tick" d="M 173.5,102 L 173.5,96"/>
    <path class="tick" d="M 192.5,102 L 192.5,96"/>
    <path class="tick" d="M 211.5,102 L 211.5,90"/>
    <path class="tick" d="M 230.5,102 L 230.5,96"/>
    <path class="tick" d="M 249.5,102 L 249.5,96"/>
    <path class="tick" d="M 268.5,102 L 268.5,96"/>
    <path class="tick" d="M 287.5,102 L 287.5,90"/>
    <path class="tick" d="M 306.5,102 L 306.5,96"/>
    <path class="tick" d="M 324.5,102 L 324.5,96"/>
    <path class="tick" d="M 343.5,102 L 343.5,96"/>
    <path class="tick" d="M 362.5,102 L 362.5,90"/>
    <path class="tick" d="M 381.5,102 L 381.5,96"/>
    <path class="tick" d="M 400.5,102 L 400.5,96"/>
    <path class="tick" d="M 419.5,102 L 419.5,96"/>
    <path class="tick" d="M 438.5,102 L 438.5,90"/>
    <path class="tick" d="M 457.5,102 L 457.5,96"/>
    <path class="tick" d="M 476.5,102 L 476.5,96"/>
    <path class="tick" d="M 494.5,102 L 494.5,96"/>
    <path class="tick" d="M 513.5,102 L 513.5,90"/>
    <path class="tick" d="M 532.5,102 L 532.5,96"/>
    <path class="tick" d="M 551.5,102 L 551.5,96"/>
    <path class="tick" d="M 570.5,102 L 570.5,96"/>
    <path class="tick" d="M 589.5,102 L 589.5,90"/>
    <path class="tick" d="M 608.5,102 L 608.5,96"/>
    <path class="tick" d="M 627.5,102 L 627.5,96"/>
    <path class="tick" d="M 646.5,102 L 646.5,96"/>
    <path class="tick" d="M 664.5,102 L 664.5,90"/>
    <path class="tick" d="M 683.5,102 L 683.5,96"/>
    <path class="tick" d="M 702.5,102 L 702.5,96"/>
    <path class="tick" d="M 721.5,102 L 721.5,96"/>
    <path class="tick" d="M 740.5,102 L 740.5,90"/>
    <text x="60" y="82" class="label-numeric label-x">0.0</text>
    <text x="136" y="82" class="label-numeric label-x">0.2</text>
    <text x="211" y="82" class="label-numeric label-x">0.4</text>
    <text x="287" y="82" class="label-numeric label-x">0.6</text>
    <text x="362" y="82" class="label-numeric label-x">0.8</text>
    <text x="438" y="82" class="label-numeric label-x unity">1.0</text>
    <text x="513" y="82" class="label-numeric label-x">1.2</text>
    <text x="589" y="82" class="label-numeric label-x">1.4</text>
    <text x="664" y="82" class="label-numeric label-x">1.6</text>
    <text x="740" y="82" class="label-numeric label-x">1.8</text>
    <text x="400" y="40" class="title">relative file size (level 9)</text>
    <text x="400" y="60" class="subtitle">swift png size / libpng size </text>
    <text x="453.77777777777777" y="120.0" class="label-legend better">rgb16-monochrome-photographic</text>
    <text x="453.77777777777777" y="140.0" class="label-legend better">rgba16-monochrome-photographic</text>
    <text x="453.77777777777777" y="160.0" class="label-legend better">rgb16-monochrome-nonphotographic</text>
    <text x="453.77777777777777" y="180.0" class="label-legend better">indexed8-monochrome-photographic</text>
    <text x="453.77777777777777" y="200.0" class="label-legend better">indexed8-monochrome-nonphotographic</text>
    <text x="453.77777777777777" y="220.0" class="label-legend better">rgba8-monochrome-photographic</text>
    <text x="453.77777777777777" y="240.0" class="label-legend better">rgba8-monochrome-nonphotographic</text>
    <text x="453.77777777777777" y="260.0" class="label-legend better">rgba8-color-photographic</text>
    <text x="453.77777777777777" y="280.0" class="label-legend better">rgb16-color-photographic</text>
    <text x="453.77777777777777" y="300.0" class="label-legend better">v16-monochrome-nonphotographic</text>
    <text x="453.77777777777777" y="320.0" class="label-legend better">rgba16-monochrome-nonphotographic</text>
    <text x="453.77777777777777" y="340.0" class="label-legend better">va16-monochrome-nonphotographic</text>
    <text x="453.77777777777777" y="360.0" class="label-legend better">indexed8-color-photographic</text>
    <text x="453.77777777777777" y="380.0" class="label-legend better">rgba16-color-photographic</text>
    <text x="453.77777777777777" y="400.0" class="label-legend better">rgb16-color-nonphotographic</text>
    <text x="453.77777777777777" y="420.0" class="label-legend better">rgba16-color-nonphotographic</text>
    <text x="453.77777777777777" y="440.0" class="label-legend better">va8-monochrome-photographic</text>
    <text x="453.77777777777777" y="460.0" class="label-legend better">rgb8-monochrome-photographic</text>
    <text x="453.77777777777777" y="480.0" class="label-legend better">va16-monochrome-photographic</text>
    <text x="453.77777777777777" y="500.0" class="label-legend better">rgb8-color-photographic</text>
    <text x="453.77777777777777" y="520.0" class="label-legend better">rgb8-monochrome-nonphotographic</text>
    <text x="453.77777777777777" y="540.0" class="label-legend better">va8-monochrome-nonphotographic</text>
    <text x="453.77777777777777" y="560.0" class="label-legend better">rgba8-color-nonphotographic</text>
    <text x="453.77777777777777" y="580.0" class="label-legend better">v16-monochrome-photographic</text>
    <text x="453.77777777777777" y="600.0" class="label-legend better">rgb8-color-nonphotographic</text>
    <text x="421.77777777777777" y="620.0" class="label-legend worse">v8-monochrome-photographic</text>
    <text x="421.77777777777777" y="640.0" class="label-legend worse">v8-monochrome-nonphotographic</text>
    <text x="421.77777777777777" y="660.0" class="label-legend worse">indexed8-color-nonphotographic</text>
    <text x="268.42180094647824" y="120.0" class="label-percent better">-40.59 %</text>
    <text x="273.6744822868636" y="140.0" class="label-percent better">-39.20 %</text>
    <text x="287.1378440228106" y="160.0" class="label-percent better">-35.64 %</text>
    <text x="325.3365197811756" y="180.0" class="label-percent better">-25.53 %</text>
    <text x="330.25280922698556" y="200.0" class="label-percent better">-24.23 %</text>
    <text x="392.127426290565" y="220.0" class="label-percent better">-7.85 %</text>
    <text x="393.468477252729" y="240.0" class="label-percent better">-7.49 %</text>
    <text x="408.67049178752313" y="260.0" class="label-percent better">-3.47 %</text>
    <text x="409.1718489247582" y="280.0" class="label-percent better">-3.34 %</text>
    <text x="409.2261156277497" y="300.0" class="label-percent better">-3.32 %</text>
    <text x="409.55219755831143" y="320.0" class="label-percent better">-3.24 %</text>
    <text x="409.55219755831143" y="340.0" class="label-percent better">-3.24 %</text>
    <text x="409.7499452817608" y="360.0" class="label-percent better">-3.18 %</text>
    <text x="410.5953316734229" y="380.0" class="label-percent better">-2.96 %</text>
    <text x="411.09872639269526" y="400.0" class="label-percent better">-2.83 %</text>
    <text x="412.33268693403096" y="420.0" class="label-percent better">-2.50 %</text>
    <text x="413.85870768513666" y="440.0" class="label-percent better">-2.10 %</text>
    <text x="414.01474269113885" y="460.0" class="label-percent better">-2.05 %</text>
    <text x="414.10890796657486" y="480.0" class="label-percent better">-2.03 %</text>
    <text x="415.2581644973296" y="500.0" class="label-percent better">-1.73 %</text>
    <text x="415.37927634822046" y="520.0" class="label-percent better">-1.69 %</text>
    <text x="416.9554548761533" y="540.0" class="label-percent better">-1.28 %</text>
    <text x="418.06482885897674" y="560.0" class="label-percent better">-0.98 %</text>
    <text x="418.49379745845846" y="580.0" class="label-percent better">-0.87 %</text>
    <text x="421.5232163899417" y="600.0" class="label-percent better">-0.07 %</text>
    <text x="457.44533901693734" y="620.0" class="label-percent worse">+0.97 %</text>
    <text x="461.62479393339925" y="640.0" class="label-percent worse">+2.08 %</text>
    <text x="477.13267120348223" y="660.0" class="label-percent worse">+6.18 %</text>
    <path class="stem better" d="M 437.77777777777777,120.0 L 288.42180094647824,120.0"/>
    <path class="stem better" d="M 437.77777777777777,140.0 L 293.6744822868636,140.0"/>
    <path class="stem better" d="M 437.77777777777777,160.0 L 307.1378440228106,160.0"/>
    <path class="stem better" d="M 437.77777777777777,180.0 L 345.3365197811756,180.0"/>
    <path class="stem better" d="M 437.77777777777777,200.0 L 350.25280922698556,200.0"/>
    <path class="stem better" d="M 437.77777777777777,220.0 L 412.127426290565,220.0"/>
    <path class="stem better" d="M 437.77777777777777,240.0 L 413.468477252729,240.0"/>
    <path class="stem better" d="M 437.77777777777777,260.0 L 428.67049178752313,260.0"/>
    <path class="stem better" d="M 437.77777777777777,280.0 L 429.1718489247582,280.0"/>
    <path class="stem better" d="M 437.77777777777777,300.0 L 429.2261156277497,300.0"/>
    <path class="stem better" d="M 437.77777777777777,320.0 L 429.55219755831143,320.0"/>
    <path class="stem better" d="M 437.77777777777777,340.0 L 429.55219755831143,340.0"/>
    <path class="stem better" d="M 437.77777777777777,360.0 L 429.7499452817608,360.0"/>
    <path class="stem better" d="M 437.77777777777777,380.0 L 430.5953316734229,380.0"/>
    <path class="stem better" d="M 437.77777777777777,400.0 L 431.09872639269526,400.0"/>
    <path class="stem better" d="M 437.77777777777777,420.0 L 432.33268693403096,420.0"/>
    <path class="stem better" d="M 437.77777777777777,440.0 L 433.85870768513666,440.0"/>
    <path class="stem better" d="M 437.77777777777777,460.0 L 434.01474269113885,460.0"/>
    <path class="stem better" d="M 437.77777777777777,480.0 L 434.10890796657486,480.0"/>
    <path class="stem better" d="M 437.77777777777777,500.0 L 435.2581644973296,500.0"/>
    <path class="stem better" d="M 437.77777777777777,520.0 L 435.37927634822046,520.0"/>
    <path class="stem better" d="M 437.77777777777777,540.0 L 436.9554548761533,540.0"/>
    <path class="stem worse" d="M 437.77777777777777,640.0 L 441.62479393339925,640.0"/>
    <path class="stem worse" d="M 437.77777777777777,660.0 L 457.13267120348223,660.0"/>
    <circle class="dot better" cx="284.42180094647824" cy="120.0" r="4"/>
    <circle class="dot better" cx="289.6744822868636" cy="140.0" r="4"/>
    <circle class="dot better" cx="303.1378440228106" cy="160.0" r="4"/>
    <circle class="dot better" cx="341.3365197811756" cy="180.0" r="4"/>
    <circle class="dot better" cx="346.25280922698556" cy="200.0" r="4"/>
    <circle class="dot better" cx="408.127426290565" cy="220.0" r="4"/>
    <circle class="dot better" cx="409.468477252729" cy="240.0" r="4"/>
    <circle class="dot better" cx="424.67049178752313" cy="260.0" r="4"/>
    <circle class="dot better" cx="425.1718489247582" cy="280.0" r="4"/>
    <circle class="dot better" cx="425.2261156277497" cy="300.0" r="4"/>
    <circle class="dot better" cx="425.55219755831143" cy="320.0" r="4"/>
    <circle class="dot better" cx="425.55219755831143" cy="340.0" r="4"/>
    <circle class="dot better" cx="425.7499452817608" cy="360.0" r="4"/>
    <circle class="dot better" cx="426.5953316734229" cy="380.0" r="4"/>
    <circle class="dot better" cx="427.09872639269526" cy="400.0" r="4"/>
    <circle class="dot better" cx="428.33268693403096" cy="420.0" r="4"/>
    <circle class="dot better" cx="429.85870768513666" cy="440.0" r="4"/>
    <circle class="dot better" cx="430.01474269113885" cy="460.0" r="4"/>
    <circle class="dot better" cx="430.10890796657486" cy="480.0" r="4"/>
    <circle class="dot better" cx="431.2581644973296" cy="500.0" r="4"/>
    <circle class="dot better" cx="431.37927634822046" cy="520.0" r="4"/>
    <circle class="dot better" cx="432.9554548761533" cy="540.0" r="4"/>
    <circle class="dot better" cx="434.06482885897674" cy="560.0" r="4"/>
    <circle class="dot better" cx="434.49379745845846" cy="580.0" r="4"/>
    <circle class="dot better" cx="437.5232163899417" cy="600.0" r="4"/>
    <circle class="dot worse" cx="441.44533901693734" cy="620.0" r="4"/>
    <circle class="dot worse" cx="445.62479393339925" cy="640.0" r="4"/>
    <circle class="dot worse" cx="461.13267120348223" cy="660.0" r="4"/>
</svg>
    