<?xml version="1.0" encoding="UTF-8"?>
    <!DOCTYPE svg PUBLIC "-//W3C//DTD SVG 1.1//EN"
  "http://www.w3.org/Graphics/SVG/1.1/DTD/svg11.dtd">
<svg xmlns="http://www.w3.org/2000/svg" xmlns:xlink="http://www.w3.org/1999/xlink" width="800" height="680" viewBox="0 0 800 680">
<style type="text/css" >
    <![CDATA[
        
    rect.background 
    {
        fill:   white;
    }
    
    path.grid 
    {
        stroke-width: 1px;
        fill:   none;
    }
    path.grid-major 
    {
        stroke: #eeeeeeff;
    }
    path.grid-minor 
    {
        stroke: #f5f5f5ff;
    }
    
    path.tick 
    {
        stroke-width: 1px;
        stroke: #333333ff;
        fill:   none;
    }
    
    path.stem 
    {
        stroke-width: 1px;
        stroke-dasharray: 3 3;
    }
    circle.dot 
    {
        stroke-width: 2px;
        stroke: #666;
        fill:   none;
    }
    
    text
    {
        fill: #333333ff;
        font-family: 'SF Mono';
    }
    text.label-numeric 
    {
        font-size: 12px;
    }
    text.label-numeric.unity 
    {
        font-weight: 700;
    }
    text.label-x 
    {
        text-anchor: middle; 
        dominant-baseline: text-top;
    }
    
    text.label-legend, text.label-percent
    {
        font-size: 12px;
        dominant-baseline: middle;
    }
    text.label-percent 
    {
        font-weight: 700;
    }
    text.label-legend.better, text.label-percent.worse 
    {
        text-anchor: begin; 
    }
    text.label-legend.worse, text.label-percent.better 
    {
        text-anchor: end; 
    }
    
    text.title, text.subtitle 
    {
        text-anchor: middle; 
    }
    text.title 
    {
        font-size: 20px;
    }
    text.subtitle 
    {
        font-size: 12px;
    }
    
    circle.better, path.stem.better
    {
        stroke: #ff694eff
    }
    circle.worse, path.stem.worse
    {
        stroke: #888888ff
    }
    text.label-percent.better 
    {
        fill: #ff694eff
    }
    text.label-percent.worse 
    {
        fill: #666666ff
    }
    
    ]]>
</style>
    <rect width="800" height="680" class="background"/>
    <path class="grid grid-minor" d="M 79.5,660 L 79.5,109"/>
    <path class="grid grid-minor" d="M 98.5,660 L 98.5,109"/>
    <path class="grid grid-minor" d="M 117.5,660 L 117.5,109"/>
    <path class="grid grid-minor" d="M 154.5,660 L 154.5,109"/>
    <path class="grid grid-minor" d="M 173.5,660 L 173.5,109"/>
    <path class="grid grid-minor" d="M 192.5,660 L 192.5,109"/>
    <path class="grid grid-minor" d="M 230.5,660 L 230.5,109"/>
    <path class="grid grid-minor" d="M 249.5,660 L 249.5,109"/>
    <path class="grid grid-minor" d="M 268.5,660 L 268.5,109"/>
    <path class="grid grid-minor" d="M 306.5,660 L 306.5,109"/>
    <path class="grid grid-minor" d="M 324.5,660 L 324.5,109"/>
    <path class="grid grid-minor" d="M 343.5,660 L 343.5,109"/>
    <path class="grid grid-minor" d="M 381.5,660 L 381.5,109"/>
    <path class="grid grid-minor" d="M 400.5,660 L 400.5,109"/>
    <path class="grid grid-minor" d="M 419.5,660 L 419.5,109"/>
    <path class="grid grid-minor" d="M 457.5,660 L 457.5,109"/>
    <path class="grid grid-minor" d="M 476.5,660 L 476.5,109"/>
    <path class="grid grid-minor" d="M 494.5,660 L 494.5,109"/>
    <path class="grid grid-minor" d="M 532.5,660 L 532.5,109"/>
    <path class="grid grid-minor" d="M 551.5,660 L 551.5,109"/>
    <path class="grid grid-minor" d="M 570.5,660 L 570.5,109"/>
    <path class="grid grid-minor" d="M 608.5,660 L 608.5,109"/>
    <path class="grid grid-minor" d="M 627.5,660 L 627.5,109"/>
    <path class="grid grid-minor" d="M 646.5,660 L 646.5,109"/>
    <path class="grid grid-minor" d="M 683.5,660 L 683.5,109"/>
    <path class="grid grid-minor" d="M 702.5,660 L 702.5,109"/>
    <path class="grid grid-minor" d="M 721.5,660 L 721.5,109"/>
    <path class="grid grid-major" d="M 60.5,660 L 60.5,109"/>
    <path class="grid grid-major" d="M 136.5,660 L 136.5,109"/>
    <path class="grid grid-major" d="M 211.5,660 L 211.5,109"/>
    <path class="grid grid-major" d="M 287.5,660 L 287.5,109"/>
    <path class="grid grid-major" d="M 362.5,660 L 362.5,109"/>
    <path class="grid grid-major" d="M 438.5,660 L 438.5,109"/>
    <path class="grid grid-major" d="M 513.5,660 L 513.5,109"/>
    <path class="grid grid-major" d="M 589.5,660 L 589.5,109"/>
    <path class="grid grid-major" d="M 664.5,660 L 664.5,109"/>
    <path class="grid grid-major" d="M 740.5,660 L 740.5,109"/>
    <path class="tick" d="M 60.5,102 L 60.5,90"/>
    <path class="tick" d="M 79.5,102 L 79.5,96"/>
    <path class="tick" d="M 98.5,102 L 98.5,96"/>
    <path class="tick" d="M 117.5,102 L 117.5,96"/>
    <path class="tick" d="M 136.5,102 L 136.5,90"/>
    <path class="tick" d="M 154.5,102 L 154.5,96"/>
    <path class="tick" d="M 173.5,102 L 173.5,96"/>
    <path class="tick" d="M 192.5,102 L 192.5,96"/>
    <path class="tick" d="M 211.5,102 L 211.5,90"/>
    <path class="tick" d="M 230.5,102 L 230.5,96"/>
    <path class="tick" d="M 249.5,102 L 249.5,96"/>
    <path class="tick" d="M 268.5,102 L 268.5,96"/>
    <path class="tick" d="M 287.5,102 L 287.5,90"/>
    <path class="tick" d="M 306.5,102 L 306.5,96"/>
    <path class="tick" d="M 324.5,102 L 324.5,96"/>
    <path class="tick" d="M 343.5,102 L 343.5,96"/>
    <path class="tick" d="M 362.5,102 L 362.5,90"/>
    <path class="tick" d="M 381.5,102 L 381.5,96"/>
    <path class="tick" d="M 400.5,102 L 400.5,96"/>
    <path class="tick" d="M 419.5,102 L 419.5,96"/>
    <path class="tick" d="M 438.5,102 L 438.5,90"/>
    <path class="tick" d="M 457.5,102 L 457.5,96"/>
    <path class="tick" d="M 476.5,102 L 476.5,96"/>
    <path class="tick" d="M 494.5,102 L 494.5,96"/>
    <path class="tick" d="M 513.5,102 L 513.5,90"/>
    <path class="tick" d="M 532.5,102 L 532.5,96"/>
    <path class="tick" d="M 551.5,102 L 551.5,96"/>
    <path class="tick" d="M 570.5,102 L 570.5,96"/>
    <path class="tick" d="M 589.5,102 L 589.5,90"/>
    <path class="tick" d="M 608.5,102 L 608.5,96"/>
    <path class="tick" d="M 627.5,102 L 627.5,96"/>
    <path class="tick" d="M 646.5,102 L 646.5,96"/>
    <path class="tick" d="M 664.5,102 L 664.5,90"/>
    <path class="tick" d="M 683.5,102 L 683.5,96"/>
    <path class="tick" d="M 702.5,102 L 702.5,96"/>
    <path class="tick" d="M 721.5,102 L 721.5,96"/>
    <path class="tick" d="M 740.5,102 L 740.5,90"/>
    <text x="60" y="82" class="label-numeric label-x">0.0</text>
    <text x="136" y="82" class="label-numeric label-x">0.2</text>
    <text x="211" y="82" class="label-numeric label-x">0.4</text>
    <text x="287" y="82" class="label-numeric label-x">0.6</text>
    <text x="362" y="82" class="label-numeric label-x">0.8</text>
    <text x="438" y="82" class="label-numeric label-x unity">1.0</text>
    <text x="513" y="82" class="label-numeric label-x">1.2</text>
    <text x="589" y="82" class="label-numeric label-x">1.4</text>
    <text x="664" y="82" class="label-numeric label-x">1.6</text>
    <text x="740" y="82" class="label-numeric label-x">1.8</text>
    <text x="400" y="40" class="title">relative file size (level 2)</text>
    <text x="400" y="60" class="subtitle">swift png size / libpng size </text>
    <text x="453.77777777777777" y="120.0" class="label-legend better">indexed8-monochrome-photographic</text>
    <text x="453.77777777777777" y="140.0" class="label-legend better">indexed8-monochrome-nonphotographic</text>
    <text x="453.77777777777777" y="160.0" class="label-legend better">v8-monochrome-nonphotographic</text>
    <text x="453.77777777777777" y="180.0" class="label-legend better">v8-monochrome-photographic</text>
    <text x="453.77777777777777" y="200.0" class="label-legend better">rgba16-monochrome-nonphotographic</text>
    <text x="453.77777777777777" y="220.0" class="label-legend better">va16-monochrome-nonphotographic</text>
    <text x="453.77777777777777" y="240.0" class="label-legend better">va16-monochrome-photographic</text>
    <text x="453.77777777777777" y="260.0" class="label-legend better">rgba8-color-nonphotographic</text>
    <text x="453.77777777777777" y="280.0" class="label-legend better">va8-monochrome-nonphotographic</text>
    <text x="453.77777777777777" y="300.0" class="label-legend better">rgb8-color-nonphotographic</text>
    <text x="453.77777777777777" y="320.0" class="label-legend better">rgb8-monochrome-photographic</text>
    <text x="453.77777777777777" y="340.0" class="label-legend better">indexed8-color-photographic</text>
    <text x="453.77777777777777" y="360.0" class="label-legend better">va8-monochrome-photographic</text>
    <text x="453.77777777777777" y="380.0" class="label-legend better">rgba16-color-nonphotographic</text>
    <text x="453.77777777777777" y="400.0" class="label-legend better">rgba8-color-photographic</text>
    <text x="453.77777777777777" y="420.0" class="label-legend better">rgb8-monochrome-nonphotographic</text>
    <text x="453.77777777777777" y="440.0" class="label-legend better">rgb8-color-photographic</text>
    <text x="421.77777777777777" y="460.0" class="label-legend worse">rgba16-color-photographic</text>
    <text x="421.77777777777777" y="480.0" class="label-legend worse">v16-monochrome-nonphotographic</text>
    <text x="421.77777777777777" y="500.0" class="label-legend worse">rgb16-color-nonphotographic</text>
    <text x="421.77777777777777" y="520.0" class="label-legend worse">v16-monochrome-photographic</text>
    <text x="421.77777777777777" y="540.0" class="label-legend worse">indexed8-color-nonphotographic</text>
    <text x="421.77777777777777" y="560.0" class="label-legend worse">rgb16-color-photographic</text>
    <text x="421.77777777777777" y="580.0" class="label-legend worse">rgba8-monochrome-nonphotographic</text>
    <text x="421.77777777777777" y="600.0" class="label-legend worse">rgba8-monochrome-photographic</text>
    <text x="421.77777777777777" y="620.0" class="label-legend worse">rgba16-monochrome-photographic</text>
    <text x="421.77777777777777" y="640.0" class="label-legend worse">rgb16-monochrome-nonphotographic</text>
    <text x="421.77777777777777" y="660.0" class="label-legend worse">rgb16-monochrome-photographic</text>
    <text x="331.96296296296293" y="120.0" class="label-percent better">-23.77 %</text>
    <text x="332.0143391521197" y="140.0" class="label-percent better">-23.76 %</text>
    <text x="391.8774320879584" y="160.0" class="label-percent better">-7.91 %</text>
    <text x="393.8603725754569" y="180.0" class="label-percent better">-7.39 %</text>
    <text x="394.7403321763328" y="200.0" class="label-percent better">-7.16 %</text>
    <text x="394.7403321763328" y="220.0" class="label-percent better">-7.16 %</text>
    <text x="397.69533054418855" y="240.0" class="label-percent better">-6.37 %</text>
    <text x="401.2803542529215" y="260.0" class="label-percent better">-5.43 %</text>
    <text x="406.31636738985236" y="280.0" class="label-percent better">-4.09 %</text>
    <text x="408.7777408576544" y="300.0" class="label-percent better">-3.44 %</text>
    <text x="408.85514119781004" y="320.0" class="label-percent better">-3.42 %</text>
    <text x="413.4906923466665" y="340.0" class="label-percent better">-2.19 %</text>
    <text x="414.2505004944966" y="360.0" class="label-percent better">-1.99 %</text>
    <text x="415.2985649282464" y="380.0" class="label-percent better">-1.72 %</text>
    <text x="416.28278246802057" y="400.0" class="label-percent better">-1.45 %</text>
    <text x="418.043401946705" y="420.0" class="label-percent better">-0.99 %</text>
    <text x="420.9611726567177" y="440.0" class="label-percent better">-0.22 %</text>
    <text x="455.54020045973385" y="460.0" class="label-percent worse">+0.47 %</text>
    <text x="460.97538235910326" y="480.0" class="label-percent worse">+1.91 %</text>
    <text x="461.29665441412527" y="500.0" class="label-percent worse">+1.99 %</text>
    <text x="461.8057251451487" y="520.0" class="label-percent worse">+2.13 %</text>
    <text x="470.1880120555591" y="540.0" class="label-percent worse">+4.34 %</text>
    <text x="471.04689425389466" y="560.0" class="label-percent worse">+4.57 %</text>
    <text x="535.1108990477344" y="580.0" class="label-percent worse">+21.53 %</text>
    <text x="551.1222987716051" y="600.0" class="label-percent worse">+25.77 %</text>
    <text x="571.4335727303909" y="620.0" class="label-percent worse">+31.14 %</text>
    <text x="605.4277776235981" y="640.0" class="label-percent worse">+40.14 %</text>
    <text x="649.4098020611926" y="660.0" class="label-percent worse">+51.78 %</text>
    <path class="stem better" d="M 437.77777777777777,120.0 L 351.96296296296293,120.0"/>
    <path class="stem better" d="M 437.77777777777777,140.0 L 352.0143391521197,140.0"/>
    <path class="stem better" d="M 437.77777777777777,160.0 L 411.8774320879584,160.0"/>
    <path class="stem better" d="M 437.77777777777777,180.0 L 413.8603725754569,180.0"/>
    <path class="stem better" d="M 437.77777777777777,200.0 L 414.7403321763328,200.0"/>
    <path class="stem better" d="M 437.77777777777777,220.0 L 414.7403321763328,220.0"/>
    <path class="stem better" d="M 437.77777777777777,240.0 L 417.69533054418855,240.0"/>
    <path class="stem better" d="M 437.77777777777777,260.0 L 421.2803542529215,260.0"/>
    <path class="stem better" d="M 437.77777777777777,280.0 L 426.31636738985236,280.0"/>
    <path class="stem better" d="M 437.77777777777777,300.0 L 428.7777408576544,300.0"/>
    <path class="stem better" d="M 437.77777777777777,320.0 L 428.85514119781004,320.0"/>
    <path class="stem better" d="M 437.77777777777777,340.0 L 433.4906923466665,340.0"/>
    <path class="stem better" d="M 437.77777777777777,360.0 L 434.2505004944966,360.0"/>
    <path class="stem better" d="M 437.77777777777777,380.0 L 435.2985649282464,380.0"/>
    <path class="stem better" d="M 437.77777777777777,400.0 L 436.28278246802057,400.0"/>
    <path class="stem worse" d="M 437.77777777777777,480.0 L 440.97538235910326,480.0"/>
    <path class="stem worse" d="M 437.77777777777777,500.0 L 441.29665441412527,500.0"/>
    <path class="stem worse" d="M 437.77777777777777,520.0 L 441.8057251451487,520.0"/>
    <path class="stem worse" d="M 437.77777777777777,540.0 L 450.1880120555591,540.0"/>
    <path class="stem worse" d="M 437.77777777777777,560.0 L 451.04689425389466,560.0"/>
    <path class="stem worse" d="M 437.77777777777777,580.0 L 515.1108990477344,580.0"/>
    <path class="stem worse" d="M 437.77777777777777,600.0 L 531.1222987716051,600.0"/>
    <path class="stem worse" d="M 437.77777777777777,620.0 L 551.4335727303909,620.0"/>
    <path class="stem worse" d="M 437.77777777777777,640.0 L 585.4277776235981,640.0"/>
    <path class="stem worse" d="M 437.77777777777777,660.0 L 629.4098020611926,660.0"/>
    <circle class="dot better" cx="347.96296296296293" cy="120.0" r="4"/>
    <circle class="dot better" cx="348.0143391521197" cy="140.0" r="4"/>
    <circle class="dot better" cx="407.8774320879584" cy="160.0" r="4"/>
    <circle class="dot better" cx="409.8603725754569" cy="180.0" r="4"/>
    <circle class="dot better" cx="410.7403321763328" cy="200.0" r="4"/>
    <circle class="dot better" cx="410.7403321763328" cy="220.0" r="4"/>
    <circle class="dot better" cx="413.69533054418855" cy="240.0" r="4"/>
    <circle class="dot better" cx="417.2803542529215" cy="260.0" r="4"/>
    <circle class="dot better" cx="422.31636738985236" cy="280.0" r="4"/>
    <circle class="dot better" cx="424.7777408576544" cy="300.0" r="4"/>
    <circle class="dot better" cx="424.85514119781004" cy="320.0" r="4"/>
    <circle class="dot better" cx="429.4906923466665" cy="340.0" r="4"/>
    <circle class="dot better" cx="430.2505004944966" cy="360.0" r="4"/>
    <circle class="dot better" cx="431.2985649282464" cy="380.0" r="4"/>
    <circle class="dot better" cx="432.28278246802057" cy="400.0" r="4"/>
    <circle class="dot better" cx="434.043401946705" cy="420.0" r="4"/>
    <circle class="dot better" cx="436.9611726567177" cy="440.0" r="4"/>
    <circle class="dot worse" cx="439.54020045973385" cy="460.0" r="4"/>
    <circle class="dot worse" cx="444.97538235910326" cy="480.0" r="4"/>
    <circle class="dot worse" cx="445.29665441412527" cy="500.0" r="4"/>
    <circle class="dot worse" cx="445.8057251451487" cy="520.0" r="4"/>
    <circle class="dot worse" cx="454.1880120555591" cy="540.0" r="4"/>
    <circle class="dot worse" cx="455.04689425389466" cy="560.0" r="4"/>
    <circle class="dot worse" cx="519.1108990477344" cy="580.0" r="4"/>
    <circle class="dot worse" cx="535.1222987716051" cy="600.0" r="4"/>
    <circle class="dot worse" cx="555.4335727303909" cy="620.0" r="4"/>
    <circle class="dot worse" cx="589.4277776235981" cy="640.0" r="4"/>
    <circle class="dot worse" cx="633.4098020611926" cy="660.0" r="4"/>
</svg>
    