<?xml version="1.0" encoding="UTF-8"?>
    <!DOCTYPE svg PUBLIC "-//W3C//DTD SVG 1.1//EN"
  "http://www.w3.org/Graphics/SVG/1.1/DTD/svg11.dtd">
<svg xmlns="http://www.w3.org/2000/svg" xmlns:xlink="http://www.w3.org/1999/xlink" width="800" height="680" viewBox="0 0 800 680">
<style type="text/css" >
    <![CDATA[
        
    rect.background 
    {
        fill:   white;
    }
    
    path.grid 
    {
        stroke-width: 1px;
        fill:   none;
    }
    path.grid-major 
    {
        stroke: #eeeeeeff;
    }
    path.grid-minor 
    {
        stroke: #f5f5f5ff;
    }
    
    path.tick 
    {
        stroke-width: 1px;
        stroke: #333333ff;
        fill:   none;
    }
    
    path.stem 
    {
        stroke-width: 1px;
        stroke-dasharray: 3 3;
    }
    circle.dot 
    {
        stroke-width: 2px;
        stroke: #666;
        fill:   none;
    }
    
    text
    {
        fill: #333333ff;
        font-family: 'SF Mono';
    }
    text.label-numeric 
    {
        font-size: 12px;
    }
    text.label-numeric.unity 
    {
        font-weight: 700;
    }
    text.label-x 
    {
        text-anchor: middle; 
        dominant-baseline: text-top;
    }
    
    text.label-legend, text.label-percent
    {
        font-size: 12px;
        dominant-baseline: middle;
    }
    text.label-percent 
    {
        font-weight: 700;
    }
    text.label-legend.better, text.label-percent.worse 
    {
        text-anchor: begin; 
    }
    text.label-legend.worse, text.label-percent.better 
    {
        text-anchor: end; 
    }
    
    text.title, text.subtitle 
    {
        text-anchor: middle; 
    }
    text.title 
    {
        font-size: 20px;
    }
    text.subtitle 
    {
        font-size: 12px;
    }
    
    circle.better, path.stem.better
    {
        stroke: #ff694eff
    }
    circle.worse, path.stem.worse
    {
        stroke: #888888ff
    }
    text.label-percent.better 
    {
        fill: #ff694eff
    }
    text.label-percent.worse 
    {
        fill: #666666ff
    }
    
    ]]>
</style>
    <rect width="800" height="680" class="background"/>
    <path class="grid grid-minor" d="M 79.5,660 L 79.5,109"/>
    <path class="grid grid-minor" d="M 98.5,660 L 98.5,109"/>
    <path class="grid grid-minor" d="M 117.5,660 L 117.5,109"/>
    <path class="grid grid-minor" d="M 154.5,660 L 154.5,109"/>
    <path class="grid grid-minor" d="M 173.5,660 L 173.5,109"/>
    <path class="grid grid-minor" d="M 192.5,660 L 192.5,109"/>
    <path class="grid grid-minor" d="M 230.5,660 L 230.5,109"/>
    <path class="grid grid-minor" d="M 249.5,660 L 249.5,109"/>
    <path class="grid grid-minor" d="M 268.5,660 L 268.5,109"/>
    <path class="grid grid-minor" d="M 306.5,660 L 306.5,109"/>
    <path class="grid grid-minor" d="M 324.5,660 L 324.5,109"/>
    <path class="grid grid-minor" d="M 343.5,660 L 343.5,109"/>
    <path class="grid grid-minor" d="M 381.5,660 L 381.5,109"/>
    <path class="grid grid-minor" d="M 400.5,660 L 400.5,109"/>
    <path class="grid grid-minor" d="M 419.5,660 L 419.5,109"/>
    <path class="grid grid-minor" d="M 457.5,660 L 457.5,109"/>
    <path class="grid grid-minor" d="M 476.5,660 L 476.5,109"/>
    <path class="grid grid-minor" d="M 494.5,660 L 494.5,109"/>
    <path class="grid grid-minor" d="M 532.5,660 L 532.5,109"/>
    <path class="grid grid-minor" d="M 551.5,660 L 551.5,109"/>
    <path class="grid grid-minor" d="M 570.5,660 L 570.5,109"/>
    <path class="grid grid-minor" d="M 608.5,660 L 608.5,109"/>
    <path class="grid grid-minor" d="M 627.5,660 L 627.5,109"/>
    <path class="grid grid-minor" d="M 646.5,660 L 646.5,109"/>
    <path class="grid grid-minor" d="M 683.5,660 L 683.5,109"/>
    <path class="grid grid-minor" d="M 702.5,660 L 702.5,109"/>
    <path class="grid grid-minor" d="M 721.5,660 L 721.5,109"/>
    <path class="grid grid-major" d="M 60.5,660 L 60.5,109"/>
    <path class="grid grid-major" d="M 136.5,660 L 136.5,109"/>
    <path class="grid grid-major" d="M 211.5,660 L 211.5,109"/>
    <path class="grid grid-major" d="M 287.5,660 L 287.5,109"/>
    <path class="grid grid-major" d="M 362.5,660 L 362.5,109"/>
    <path class="grid grid-major" d="M 438.5,660 L 438.5,109"/>
    <path class="grid grid-major" d="M 513.5,660 L 513.5,109"/>
    <path class="grid grid-major" d="M 589.5,660 L 589.5,109"/>
    <path class="grid grid-major" d="M 664.5,660 L 664.5,109"/>
    <path class="grid grid-major" d="M 740.5,660 L 740.5,109"/>
    <path class="tick" d="M 60.5,102 L 60.5,90"/>
    <path class="tick" d="M 79.5,102 L 79.5,96"/>
    <path class="tick" d="M 98.5,102 L 98.5,96"/>
    <path class="tick" d="M 117.5,102 L 117.5,96"/>
    <path class="tick" d="M 136.5,102 L 136.5,90"/>
    <path class="tick" d="M 154.5,102 L 154.5,96"/>
    <path class="tick" d="M 173.5,102 L 173.5,96"/>
    <path class="tick" d="M 192.5,102 L 192.5,96"/>
    <path class="tick" d="M 211.5,102 L 211.5,90"/>
    <path class="tick" d="M 230.5,102 L 230.5,96"/>
    <path class="tick" d="M 249.5,102 L 249.5,96"/>
    <path class="tick" d="M 268.5,102 L 268.5,96"/>
    <path class="tick" d="M 287.5,102 L 287.5,90"/>
    <path class="tick" d="M 306.5,102 L 306.5,96"/>
    <path class="tick" d="M 324.5,102 L 324.5,96"/>
    <path class="tick" d="M 343.5,102 L 343.5,96"/>
    <path class="tick" d="M 362.5,102 L 362.5,90"/>
    <path class="tick" d="M 381.5,102 L 381.5,96"/>
    <path class="tick" d="M 400.5,102 L 400.5,96"/>
    <path class="tick" d="M 419.5,102 L 419.5,96"/>
    <path class="tick" d="M 438.5,102 L 438.5,90"/>
    <path class="tick" d="M 457.5,102 L 457.5,96"/>
    <path class="tick" d="M 476.5,102 L 476.5,96"/>
    <path class="tick" d="M 494.5,102 L 494.5,96"/>
    <path class="tick" d="M 513.5,102 L 513.5,90"/>
    <path class="tick" d="M 532.5,102 L 532.5,96"/>
    <path class="tick" d="M 551.5,102 L 551.5,96"/>
    <path class="tick" d="M 570.5,102 L 570.5,96"/>
    <path class="tick" d="M 589.5,102 L 589.5,90"/>
    <path class="tick" d="M 608.5,102 L 608.5,96"/>
    <path class="tick" d="M 627.5,102 L 627.5,96"/>
    <path class="tick" d="M 646.5,102 L 646.5,96"/>
    <path class="tick" d="M 664.5,102 L 664.5,90"/>
    <path class="tick" d="M 683.5,102 L 683.5,96"/>
    <path class="tick" d="M 702.5,102 L 702.5,96"/>
    <path class="tick" d="M 721.5,102 L 721.5,96"/>
    <path class="tick" d="M 740.5,102 L 740.5,90"/>
    <text x="60" y="82" class="label-numeric label-x">0.0</text>
    <text x="136" y="82" class="label-numeric label-x">0.2</text>
    <text x="211" y="82" class="label-numeric label-x">0.4</text>
    <text x="287" y="82" class="label-numeric label-x">0.6</text>
    <text x="362" y="82" class="label-numeric label-x">0.8</text>
    <text x="438" y="82" class="label-numeric label-x unity">1.0</text>
    <text x="513" y="82" class="label-numeric label-x">1.2</text>
    <text x="589" y="82" class="label-numeric label-x">1.4</text>
    <text x="664" y="82" class="label-numeric label-x">1.6</text>
    <text x="740" y="82" class="label-numeric label-x">1.8</text>
    <text x="400" y="40" class="title">relative file size (level 8)</text>
    <text x="400" y="60" class="subtitle">swift png size / libpng size </text>
    <text x="453.77777777777777" y="120.0" class="label-legend better">rgb16-monochrome-photographic</text>
    <text x="453.77777777777777" y="140.0" class="label-legend better">rgba16-monochrome-photographic</text>
    <text x="453.77777777777777" y="160.0" class="label-legend better">rgb16-monochrome-nonphotographic</text>
    <text x="453.77777777777777" y="180.0" class="label-legend better">indexed8-monochrome-photographic</text>
    <text x="453.77777777777777" y="200.0" class="label-legend better">indexed8-monochrome-nonphotographic</text>
    <text x="453.77777777777777" y="220.0" class="label-legend better">rgb16-color-photographic</text>
    <text x="453.77777777777777" y="240.0" class="label-legend better">v16-monochrome-nonphotographic</text>
    <text x="453.77777777777777" y="260.0" class="label-legend better">rgb16-color-nonphotographic</text>
    <text x="453.77777777777777" y="280.0" class="label-legend better">indexed8-color-photographic</text>
    <text x="453.77777777777777" y="300.0" class="label-legend better">rgba8-color-photographic</text>
    <text x="453.77777777777777" y="320.0" class="label-legend better">rgba16-color-photographic</text>
    <text x="453.77777777777777" y="340.0" class="label-legend better">rgba16-color-nonphotographic</text>
    <text x="453.77777777777777" y="360.0" class="label-legend better">rgb8-color-photographic</text>
    <text x="453.77777777777777" y="380.0" class="label-legend better">v16-monochrome-photographic</text>
    <text x="453.77777777777777" y="400.0" class="label-legend better">rgb8-monochrome-photographic</text>
    <text x="453.77777777777777" y="420.0" class="label-legend better">rgb8-monochrome-nonphotographic</text>
    <text x="453.77777777777777" y="440.0" class="label-legend better">va16-monochrome-photographic</text>
    <text x="453.77777777777777" y="460.0" class="label-legend better">rgba16-monochrome-nonphotographic</text>
    <text x="453.77777777777777" y="480.0" class="label-legend better">va16-monochrome-nonphotographic</text>
    <text x="421.77777777777777" y="500.0" class="label-legend worse">rgb8-color-nonphotographic</text>
    <text x="421.77777777777777" y="520.0" class="label-legend worse">rgba8-color-nonphotographic</text>
    <text x="421.77777777777777" y="540.0" class="label-legend worse">va8-monochrome-photographic</text>
    <text x="421.77777777777777" y="560.0" class="label-legend worse">rgba8-monochrome-nonphotographic</text>
    <text x="421.77777777777777" y="580.0" class="label-legend worse">v8-monochrome-photographic</text>
    <text x="421.77777777777777" y="600.0" class="label-legend worse">v8-monochrome-nonphotographic</text>
    <text x="421.77777777777777" y="620.0" class="label-legend worse">va8-monochrome-nonphotographic</text>
    <text x="421.77777777777777" y="640.0" class="label-legend worse">rgba8-monochrome-photographic</text>
    <text x="421.77777777777777" y="660.0" class="label-legend worse">indexed8-color-nonphotographic</text>
    <text x="271.6788157450745" y="120.0" class="label-percent better">-39.73 %</text>
    <text x="284.3609450575447" y="140.0" class="label-percent better">-36.38 %</text>
    <text x="292.84004586369093" y="160.0" class="label-percent better">-34.13 %</text>
    <text x="327.98972533144746" y="180.0" class="label-percent better">-24.83 %</text>
    <text x="333.99526495074133" y="200.0" class="label-percent better">-23.24 %</text>
    <text x="410.0308413935239" y="220.0" class="label-percent better">-3.11 %</text>
    <text x="410.8123808548446" y="240.0" class="label-percent better">-2.90 %</text>
    <text x="412.25685446171747" y="260.0" class="label-percent better">-2.52 %</text>
    <text x="413.91497888469803" y="280.0" class="label-percent better">-2.08 %</text>
    <text x="414.0906849618436" y="300.0" class="label-percent better">-2.03 %</text>
    <text x="414.90106405417" y="320.0" class="label-percent better">-1.82 %</text>
    <text x="415.78059369951535" y="340.0" class="label-percent better">-1.59 %</text>
    <text x="418.4796008637415" y="360.0" class="label-percent better">-0.87 %</text>
    <text x="419.1819046700371" y="380.0" class="label-percent better">-0.69 %</text>
    <text x="419.47091031590134" y="400.0" class="label-percent better">-0.61 %</text>
    <text x="419.58904727266537" y="420.0" class="label-percent better">-0.58 %</text>
    <text x="420.91663414773427" y="440.0" class="label-percent better">-0.23 %</text>
    <text x="421.1457235323444" y="460.0" class="label-percent better">-0.17 %</text>
    <text x="421.1457235323444" y="480.0" class="label-percent better">-0.17 %</text>
    <text x="457.10619093669936" y="500.0" class="label-percent worse">+0.88 %</text>
    <text x="457.2392835116873" y="520.0" class="label-percent worse">+0.92 %</text>
    <text x="457.27984218014853" y="540.0" class="label-percent worse">+0.93 %</text>
    <text x="458.6968288789816" y="560.0" class="label-percent worse">+1.30 %</text>
    <text x="461.10025349320324" y="580.0" class="label-percent worse">+1.94 %</text>
    <text x="465.34631720708586" y="600.0" class="label-percent worse">+3.06 %</text>
    <text x="465.35862454387063" y="620.0" class="label-percent worse">+3.07 %</text>
    <text x="469.9973430898558" y="640.0" class="label-percent worse">+4.29 %</text>
    <text x="485.88897574633535" y="660.0" class="label-percent worse">+8.50 %</text>
    <path class="stem better" d="M 437.77777777777777,120.0 L 291.6788157450745,120.0"/>
    <path class="stem better" d="M 437.77777777777777,140.0 L 304.3609450575447,140.0"/>
    <path class="stem better" d="M 437.77777777777777,160.0 L 312.84004586369093,160.0"/>
    <path class="stem better" d="M 437.77777777777777,180.0 L 347.98972533144746,180.0"/>
    <path class="stem better" d="M 437.77777777777777,200.0 L 353.99526495074133,200.0"/>
    <path class="stem better" d="M 437.77777777777777,220.0 L 430.0308413935239,220.0"/>
    <path class="stem better" d="M 437.77777777777777,240.0 L 430.8123808548446,240.0"/>
    <path class="stem better" d="M 437.77777777777777,260.0 L 432.25685446171747,260.0"/>
    <path class="stem better" d="M 437.77777777777777,280.0 L 433.91497888469803,280.0"/>
    <path class="stem better" d="M 437.77777777777777,300.0 L 434.0906849618436,300.0"/>
    <path class="stem better" d="M 437.77777777777777,320.0 L 434.90106405417,320.0"/>
    <path class="stem better" d="M 437.77777777777777,340.0 L 435.78059369951535,340.0"/>
    <path class="stem worse" d="M 437.77777777777777,560.0 L 438.6968288789816,560.0"/>
    <path class="stem worse" d="M 437.77777777777777,580.0 L 441.10025349320324,580.0"/>
    <path class="stem worse" d="M 437.77777777777777,600.0 L 445.34631720708586,600.0"/>
    <path class="stem worse" d="M 437.77777777777777,620.0 L 445.35862454387063,620.0"/>
    <path class="stem worse" d="M 437.77777777777777,640.0 L 449.9973430898558,640.0"/>
    <path class="stem worse" d="M 437.77777777777777,660.0 L 465.88897574633535,660.0"/>
    <circle class="dot better" cx="287.6788157450745" cy="120.0" r="4"/>
    <circle class="dot better" cx="300.3609450575447" cy="140.0" r="4"/>
    <circle class="dot better" cx="308.84004586369093" cy="160.0" r="4"/>
    <circle class="dot better" cx="343.98972533144746" cy="180.0" r="4"/>
    <circle class="dot better" cx="349.99526495074133" cy="200.0" r="4"/>
    <circle class="dot better" cx="426.0308413935239" cy="220.0" r="4"/>
    <circle class="dot better" cx="426.8123808548446" cy="240.0" r="4"/>
    <circle class="dot better" cx="428.25685446171747" cy="260.0" r="4"/>
    <circle class="dot better" cx="429.91497888469803" cy="280.0" r="4"/>
    <circle class="dot better" cx="430.0906849618436" cy="300.0" r="4"/>
    <circle class="dot better" cx="430.90106405417" cy="320.0" r="4"/>
    <circle class="dot better" cx="431.78059369951535" cy="340.0" r="4"/>
    <circle class="dot better" cx="434.4796008637415" cy="360.0" r="4"/>
    <circle class="dot better" cx="435.1819046700371" cy="380.0" r="4"/>
    <circle class="dot better" cx="435.47091031590134" cy="400.0" r="4"/>
    <circle class="dot better" cx="435.58904727266537" cy="420.0" r="4"/>
    <circle class="dot better" cx="436.91663414773427" cy="440.0" r="4"/>
    <circle class="dot better" cx="437.1457235323444" cy="460.0" r="4"/>
    <circle class="dot better" cx="437.1457235323444" cy="480.0" r="4"/>
    <circle class="dot worse" cx="441.10619093669936" cy="500.0" r="4"/>
    <circle class="dot worse" cx="441.2392835116873" cy="520.0" r="4"/>
    <circle class="dot worse" cx="441.27984218014853" cy="540.0" r="4"/>
    <circle class="dot worse" cx="442.6968288789816" cy="560.0" r="4"/>
    <circle class="dot worse" cx="445.10025349320324" cy="580.0" r="4"/>
    <circle class="dot worse" cx="449.34631720708586" cy="600.0" r="4"/>
    <circle class="dot worse" cx="449.35862454387063" cy="620.0" r="4"/>
    <circle class="dot worse" cx="453.9973430898558" cy="640.0" r="4"/>
    <circle class="dot worse" cx="469.88897574633535" cy="660.0" r="4"/>
</svg>
    