<?xml version="1.0" encoding="UTF-8"?>
    <!DOCTYPE svg PUBLIC "-//W3C//DTD SVG 1.1//EN"
  "http://www.w3.org/Graphics/SVG/1.1/DTD/svg11.dtd">
<svg xmlns="http://www.w3.org/2000/svg" xmlns:xlink="http://www.w3.org/1999/xlink" width="800" height="680" viewBox="0 0 800 680">
<style type="text/css" >
    <![CDATA[
        
    rect.background 
    {
        fill:   white;
    }
    
    path.grid 
    {
        stroke-width: 1px;
        fill:   none;
    }
    path.grid-major 
    {
        stroke: #eeeeeeff;
    }
    path.grid-minor 
    {
        stroke: #f5f5f5ff;
    }
    
    path.tick 
    {
        stroke-width: 1px;
        stroke: #333333ff;
        fill:   none;
    }
    
    path.stem 
    {
        stroke-width: 1px;
        stroke-dasharray: 3 3;
    }
    circle.dot 
    {
        stroke-width: 2px;
        stroke: #666;
        fill:   none;
    }
    
    text
    {
        fill: #333333ff;
        font-family: 'SF Mono';
    }
    text.label-numeric 
    {
        font-size: 12px;
    }
    text.label-numeric.unity 
    {
        font-weight: 700;
    }
    text.label-x 
    {
        text-anchor: middle; 
        dominant-baseline: text-top;
    }
    
    text.label-legend, text.label-percent
    {
        font-size: 12px;
        dominant-baseline: middle;
    }
    text.label-percent 
    {
        font-weight: 700;
    }
    text.label-legend.better, text.label-percent.worse 
    {
        text-anchor: begin; 
    }
    text.label-legend.worse, text.label-percent.better 
    {
        text-anchor: end; 
    }
    
    text.title, text.subtitle 
    {
        text-anchor: middle; 
    }
    text.title 
    {
        font-size: 20px;
    }
    text.subtitle 
    {
        font-size: 12px;
    }
    
    circle.better, path.stem.better
    {
        stroke: #ff694eff
    }
    circle.worse, path.stem.worse
    {
        stroke: #888888ff
    }
    text.label-percent.better 
    {
        fill: #ff694eff
    }
    text.label-percent.worse 
    {
        fill: #666666ff
    }
    
    ]]>
</style>
    <rect width="800" height="680" class="background"/>
    <path class="grid grid-minor" d="M 79.5,660 L 79.5,109"/>
    <path class="grid grid-minor" d="M 98.5,660 L 98.5,109"/>
    <path class="grid grid-minor" d="M 117.5,660 L 117.5,109"/>
    <path class="grid grid-minor" d="M 154.5,660 L 154.5,109"/>
    <path class="grid grid-minor" d="M 173.5,660 L 173.5,109"/>
    <path class="grid grid-minor" d="M 192.5,660 L 192.5,109"/>
    <path class="grid grid-minor" d="M 230.5,660 L 230.5,109"/>
    <path class="grid grid-minor" d="M 249.5,660 L 249.5,109"/>
    <path class="grid grid-minor" d="M 268.5,660 L 268.5,109"/>
    <path class="grid grid-minor" d="M 306.5,660 L 306.5,109"/>
    <path class="grid grid-minor" d="M 324.5,660 L 324.5,109"/>
    <path class="grid grid-minor" d="M 343.5,660 L 343.5,109"/>
    <path class="grid grid-minor" d="M 381.5,660 L 381.5,109"/>
    <path class="grid grid-minor" d="M 400.5,660 L 400.5,109"/>
    <path class="grid grid-minor" d="M 419.5,660 L 419.5,109"/>
    <path class="grid grid-minor" d="M 457.5,660 L 457.5,109"/>
    <path class="grid grid-minor" d="M 476.5,660 L 476.5,109"/>
    <path class="grid grid-minor" d="M 494.5,660 L 494.5,109"/>
    <path class="grid grid-minor" d="M 532.5,660 L 532.5,109"/>
    <path class="grid grid-minor" d="M 551.5,660 L 551.5,109"/>
    <path class="grid grid-minor" d="M 570.5,660 L 570.5,109"/>
    <path class="grid grid-minor" d="M 608.5,660 L 608.5,109"/>
    <path class="grid grid-minor" d="M 627.5,660 L 627.5,109"/>
    <path class="grid grid-minor" d="M 646.5,660 L 646.5,109"/>
    <path class="grid grid-minor" d="M 683.5,660 L 683.5,109"/>
    <path class="grid grid-minor" d="M 702.5,660 L 702.5,109"/>
    <path class="grid grid-minor" d="M 721.5,660 L 721.5,109"/>
    <path class="grid grid-major" d="M 60.5,660 L 60.5,109"/>
    <path class="grid grid-major" d="M 136.5,660 L 136.5,109"/>
    <path class="grid grid-major" d="M 211.5,660 L 211.5,109"/>
    <path class="grid grid-major" d="M 287.5,660 L 287.5,109"/>
    <path class="grid grid-major" d="M 362.5,660 L 362.5,109"/>
    <path class="grid grid-major" d="M 438.5,660 L 438.5,109"/>
    <path class="grid grid-major" d="M 513.5,660 L 513.5,109"/>
    <path class="grid grid-major" d="M 589.5,660 L 589.5,109"/>
    <path class="grid grid-major" d="M 664.5,660 L 664.5,109"/>
    <path class="grid grid-major" d="M 740.5,660 L 740.5,109"/>
    <path class="tick" d="M 60.5,102 L 60.5,90"/>
    <path class="tick" d="M 79.5,102 L 79.5,96"/>
    <path class="tick" d="M 98.5,102 L 98.5,96"/>
    <path class="tick" d="M 117.5,102 L 117.5,96"/>
    <path class="tick" d="M 136.5,102 L 136.5,90"/>
    <path class="tick" d="M 154.5,102 L 154.5,96"/>
    <path class="tick" d="M 173.5,102 L 173.5,96"/>
    <path class="tick" d="M 192.5,102 L 192.5,96"/>
    <path class="tick" d="M 211.5,102 L 211.5,90"/>
    <path class="tick" d="M 230.5,102 L 230.5,96"/>
    <path class="tick" d="M 249.5,102 L 249.5,96"/>
    <path class="tick" d="M 268.5,102 L 268.5,96"/>
    <path class="tick" d="M 287.5,102 L 287.5,90"/>
    <path class="tick" d="M 306.5,102 L 306.5,96"/>
    <path class="tick" d="M 324.5,102 L 324.5,96"/>
    <path class="tick" d="M 343.5,102 L 343.5,96"/>
    <path class="tick" d="M 362.5,102 L 362.5,90"/>
    <path class="tick" d="M 381.5,102 L 381.5,96"/>
    <path class="tick" d="M 400.5,102 L 400.5,96"/>
    <path class="tick" d="M 419.5,102 L 419.5,96"/>
    <path class="tick" d="M 438.5,102 L 438.5,90"/>
    <path class="tick" d="M 457.5,102 L 457.5,96"/>
    <path class="tick" d="M 476.5,102 L 476.5,96"/>
    <path class="tick" d="M 494.5,102 L 494.5,96"/>
    <path class="tick" d="M 513.5,102 L 513.5,90"/>
    <path class="tick" d="M 532.5,102 L 532.5,96"/>
    <path class="tick" d="M 551.5,102 L 551.5,96"/>
    <path class="tick" d="M 570.5,102 L 570.5,96"/>
    <path class="tick" d="M 589.5,102 L 589.5,90"/>
    <path class="tick" d="M 608.5,102 L 608.5,96"/>
    <path class="tick" d="M 627.5,102 L 627.5,96"/>
    <path class="tick" d="M 646.5,102 L 646.5,96"/>
    <path class="tick" d="M 664.5,102 L 664.5,90"/>
    <path class="tick" d="M 683.5,102 L 683.5,96"/>
    <path class="tick" d="M 702.5,102 L 702.5,96"/>
    <path class="tick" d="M 721.5,102 L 721.5,96"/>
    <path class="tick" d="M 740.5,102 L 740.5,90"/>
    <text x="60" y="82" class="label-numeric label-x">0.0</text>
    <text x="136" y="82" class="label-numeric label-x">0.2</text>
    <text x="211" y="82" class="label-numeric label-x">0.4</text>
    <text x="287" y="82" class="label-numeric label-x">0.6</text>
    <text x="362" y="82" class="label-numeric label-x">0.8</text>
    <text x="438" y="82" class="label-numeric label-x unity">1.0</text>
    <text x="513" y="82" class="label-numeric label-x">1.2</text>
    <text x="589" y="82" class="label-numeric label-x">1.4</text>
    <text x="664" y="82" class="label-numeric label-x">1.6</text>
    <text x="740" y="82" class="label-numeric label-x">1.8</text>
    <text x="400" y="40" class="title">relative file size (level 6)</text>
    <text x="400" y="60" class="subtitle">swift png size / libpng size </text>
    <text x="453.77777777777777" y="120.0" class="label-legend better">indexed8-monochrome-photographic</text>
    <text x="453.77777777777777" y="140.0" class="label-legend better">indexed8-monochrome-nonphotographic</text>
    <text x="453.77777777777777" y="160.0" class="label-legend better">rgb8-monochrome-photographic</text>
    <text x="453.77777777777777" y="180.0" class="label-legend better">rgb8-monochrome-nonphotographic</text>
    <text x="453.77777777777777" y="200.0" class="label-legend better">indexed8-color-photographic</text>
    <text x="421.77777777777777" y="220.0" class="label-legend worse">rgba16-monochrome-photographic</text>
    <text x="421.77777777777777" y="240.0" class="label-legend worse">rgb16-monochrome-nonphotographic</text>
    <text x="421.77777777777777" y="260.0" class="label-legend worse">rgb16-monochrome-photographic</text>
    <text x="421.77777777777777" y="280.0" class="label-legend worse">va16-monochrome-photographic</text>
    <text x="421.77777777777777" y="300.0" class="label-legend worse">rgba16-monochrome-nonphotographic</text>
    <text x="421.77777777777777" y="320.0" class="label-legend worse">va16-monochrome-nonphotographic</text>
    <text x="421.77777777777777" y="340.0" class="label-legend worse">va8-monochrome-photographic</text>
    <text x="421.77777777777777" y="360.0" class="label-legend worse">v8-monochrome-photographic</text>
    <text x="421.77777777777777" y="380.0" class="label-legend worse">va8-monochrome-nonphotographic</text>
    <text x="421.77777777777777" y="400.0" class="label-legend worse">rgba8-color-photographic</text>
    <text x="421.77777777777777" y="420.0" class="label-legend worse">rgba8-color-nonphotographic</text>
    <text x="421.77777777777777" y="440.0" class="label-legend worse">rgb8-color-photographic</text>
    <text x="421.77777777777777" y="460.0" class="label-legend worse">rgb8-color-nonphotographic</text>
    <text x="421.77777777777777" y="480.0" class="label-legend worse">v8-monochrome-nonphotographic</text>
    <text x="421.77777777777777" y="500.0" class="label-legend worse">v16-monochrome-nonphotographic</text>
    <text x="421.77777777777777" y="520.0" class="label-legend worse">v16-monochrome-photographic</text>
    <text x="421.77777777777777" y="540.0" class="label-legend worse">rgba16-color-photographic</text>
    <text x="421.77777777777777" y="560.0" class="label-legend worse">rgb16-color-photographic</text>
    <text x="421.77777777777777" y="580.0" class="label-legend worse">rgba16-color-nonphotographic</text>
    <text x="421.77777777777777" y="600.0" class="label-legend worse">rgb16-color-nonphotographic</text>
    <text x="421.77777777777777" y="620.0" class="label-legend worse">rgba8-monochrome-nonphotographic</text>
    <text x="421.77777777777777" y="640.0" class="label-legend worse">rgba8-monochrome-photographic</text>
    <text x="421.77777777777777" y="660.0" class="label-legend worse">indexed8-color-nonphotographic</text>
    <text x="326.99592892898994" y="120.0" class="label-percent better">-25.09 %</text>
    <text x="333.8492806778571" y="140.0" class="label-percent better">-23.28 %</text>
    <text x="386.5497601528076" y="160.0" class="label-percent better">-9.33 %</text>
    <text x="392.7972833494851" y="180.0" class="label-percent better">-7.67 %</text>
    <text x="415.0082693964494" y="200.0" class="label-percent better">-1.79 %</text>
    <text x="454.4953973530583" y="220.0" class="label-percent worse">+0.19 %</text>
    <text x="455.55807757929017" y="240.0" class="label-percent worse">+0.47 %</text>
    <text x="456.7051638141066" y="260.0" class="label-percent worse">+0.77 %</text>
    <text x="457.9726211487943" y="280.0" class="label-percent worse">+1.11 %</text>
    <text x="458.9612253763197" y="300.0" class="label-percent worse">+1.37 %</text>
    <text x="458.9612253763197" y="320.0" class="label-percent worse">+1.37 %</text>
    <text x="459.299802548914" y="340.0" class="label-percent worse">+1.46 %</text>
    <text x="459.4590742568461" y="360.0" class="label-percent worse">+1.50 %</text>
    <text x="459.74393841013284" y="380.0" class="label-percent worse">+1.58 %</text>
    <text x="459.8392102596218" y="400.0" class="label-percent worse">+1.60 %</text>
    <text x="460.15781680150417" y="420.0" class="label-percent worse">+1.69 %</text>
    <text x="460.23431831543553" y="440.0" class="label-percent worse">+1.71 %</text>
    <text x="460.6829257697009" y="460.0" class="label-percent worse">+1.83 %</text>
    <text x="463.61655091639443" y="480.0" class="label-percent worse">+2.60 %</text>
    <text x="465.8218188606375" y="500.0" class="label-percent worse">+3.19 %</text>
    <text x="465.8691012188518" y="520.0" class="label-percent worse">+3.20 %</text>
    <text x="466.0209113249092" y="540.0" class="label-percent worse">+3.24 %</text>
    <text x="466.1154778707373" y="560.0" class="label-percent worse">+3.27 %</text>
    <text x="466.5985525156822" y="580.0" class="label-percent worse">+3.39 %</text>
    <text x="466.9866760899013" y="600.0" class="label-percent worse">+3.50 %</text>
    <text x="472.01471114954876" y="620.0" class="label-percent worse">+4.83 %</text>
    <text x="475.61639397912535" y="640.0" class="label-percent worse">+5.78 %</text>
    <text x="490.85116977170276" y="660.0" class="label-percent worse">+9.81 %</text>
    <path class="stem better" d="M 437.77777777777777,120.0 L 346.99592892898994,120.0"/>
    <path class="stem better" d="M 437.77777777777777,140.0 L 353.8492806778571,140.0"/>
    <path class="stem better" d="M 437.77777777777777,160.0 L 406.5497601528076,160.0"/>
    <path class="stem better" d="M 437.77777777777777,180.0 L 412.7972833494851,180.0"/>
    <path class="stem better" d="M 437.77777777777777,200.0 L 435.0082693964494,200.0"/>
    <path class="stem worse" d="M 437.77777777777777,280.0 L 437.9726211487943,280.0"/>
    <path class="stem worse" d="M 437.77777777777777,300.0 L 438.9612253763197,300.0"/>
    <path class="stem worse" d="M 437.77777777777777,320.0 L 438.9612253763197,320.0"/>
    <path class="stem worse" d="M 437.77777777777777,340.0 L 439.299802548914,340.0"/>
    <path class="stem worse" d="M 437.77777777777777,360.0 L 439.4590742568461,360.0"/>
    <path class="stem worse" d="M 437.77777777777777,380.0 L 439.74393841013284,380.0"/>
    <path class="stem worse" d="M 437.77777777777777,400.0 L 439.8392102596218,400.0"/>
    <path class="stem worse" d="M 437.77777777777777,420.0 L 440.15781680150417,420.0"/>
    <path class="stem worse" d="M 437.77777777777777,440.0 L 440.23431831543553,440.0"/>
    <path class="stem worse" d="M 437.77777777777777,460.0 L 440.6829257697009,460.0"/>
    <path class="stem worse" d="M 437.77777777777777,480.0 L 443.61655091639443,480.0"/>
    <path class="stem worse" d="M 437.77777777777777,500.0 L 445.8218188606375,500.0"/>
    <path class="stem worse" d="M 437.77777777777777,520.0 L 445.8691012188518,520.0"/>
    <path class="stem worse" d="M 437.77777777777777,540.0 L 446.0209113249092,540.0"/>
    <path class="stem worse" d="M 437.77777777777777,560.0 L 446.1154778707373,560.0"/>
    <path class="stem worse" d="M 437.77777777777777,580.0 L 446.5985525156822,580.0"/>
    <path class="stem worse" d="M 437.77777777777777,600.0 L 446.9866760899013,600.0"/>
    <path class="stem worse" d="M 437.77777777777777,620.0 L 452.01471114954876,620.0"/>
    <path class="stem worse" d="M 437.77777777777777,640.0 L 455.61639397912535,640.0"/>
    <path class="stem worse" d="M 437.77777777777777,660.0 L 470.85116977170276,660.0"/>
    <circle class="dot better" cx="342.99592892898994" cy="120.0" r="4"/>
    <circle class="dot better" cx="349.8492806778571" cy="140.0" r="4"/>
    <circle class="dot better" cx="402.5497601528076" cy="160.0" r="4"/>
    <circle class="dot better" cx="408.7972833494851" cy="180.0" r="4"/>
    <circle class="dot better" cx="431.0082693964494" cy="200.0" r="4"/>
    <circle class="dot worse" cx="438.4953973530583" cy="220.0" r="4"/>
    <circle class="dot worse" cx="439.55807757929017" cy="240.0" r="4"/>
    <circle class="dot worse" cx="440.7051638141066" cy="260.0" r="4"/>
    <circle class="dot worse" cx="441.9726211487943" cy="280.0" r="4"/>
    <circle class="dot worse" cx="442.9612253763197" cy="300.0" r="4"/>
    <circle class="dot worse" cx="442.9612253763197" cy="320.0" r="4"/>
    <circle class="dot worse" cx="443.299802548914" cy="340.0" r="4"/>
    <circle class="dot worse" cx="443.4590742568461" cy="360.0" r="4"/>
    <circle class="dot worse" cx="443.74393841013284" cy="380.0" r="4"/>
    <circle class="dot worse" cx="443.8392102596218" cy="400.0" r="4"/>
    <circle class="dot worse" cx="444.15781680150417" cy="420.0" r="4"/>
    <circle class="dot worse" cx="444.23431831543553" cy="440.0" r="4"/>
    <circle class="dot worse" cx="444.6829257697009" cy="460.0" r="4"/>
    <circle class="dot worse" cx="447.61655091639443" cy="480.0" r="4"/>
    <circle class="dot worse" cx="449.8218188606375" cy="500.0" r="4"/>
    <circle class="dot worse" cx="449.8691012188518" cy="520.0" r="4"/>
    <circle class="dot worse" cx="450.0209113249092" cy="540.0" r="4"/>
    <circle class="dot worse" cx="450.1154778707373" cy="560.0" r="4"/>
    <circle class="dot worse" cx="450.5985525156822" cy="580.0" r="4"/>
    <circle class="dot worse" cx="450.9866760899013" cy="600.0" r="4"/>
    <circle class="dot worse" cx="456.01471114954876" cy="620.0" r="4"/>
    <circle class="dot worse" cx="459.61639397912535" cy="640.0" r="4"/>
    <circle class="dot worse" cx="474.85116977170276" cy="660.0" r="4"/>
</svg>
    