<?xml version="1.0" encoding="UTF-8"?>
    <!DOCTYPE svg PUBLIC "-//W3C//DTD SVG 1.1//EN"
  "http://www.w3.org/Graphics/SVG/1.1/DTD/svg11.dtd">
<svg xmlns="http://www.w3.org/2000/svg" xmlns:xlink="http://www.w3.org/1999/xlink" width="800" height="680" viewBox="0 0 800 680">
<style type="text/css" >
    <![CDATA[
        
    rect.background 
    {
        fill:   white;
    }
    
    path.grid 
    {
        stroke-width: 1px;
        fill:   none;
    }
    path.grid-major 
    {
        stroke: #eeeeeeff;
    }
    path.grid-minor 
    {
        stroke: #f5f5f5ff;
    }
    
    path.tick 
    {
        stroke-width: 1px;
        stroke: #333333ff;
        fill:   none;
    }
    
    path.stem 
    {
        stroke-width: 1px;
        stroke-dasharray: 3 3;
    }
    circle.dot 
    {
        stroke-width: 2px;
        stroke: #666;
        fill:   none;
    }
    
    text
    {
        fill: #333333ff;
        font-family: 'SF Mono';
    }
    text.label-numeric 
    {
        font-size: 12px;
    }
    text.label-numeric.unity 
    {
        font-weight: 700;
    }
    text.label-x 
    {
        text-anchor: middle; 
        dominant-baseline: text-top;
    }
    
    text.label-legend, text.label-percent
    {
        font-size: 12px;
        dominant-baseline: middle;
    }
    text.label-percent 
    {
        font-weight: 700;
    }
    text.label-legend.better, text.label-percent.worse 
    {
        text-anchor: begin; 
    }
    text.label-legend.worse, text.label-percent.better 
    {
        text-anchor: end; 
    }
    
    text.title, text.subtitle 
    {
        text-anchor: middle; 
    }
    text.title 
    {
        font-size: 20px;
    }
    text.subtitle 
    {
        font-size: 12px;
    }
    
    circle.better, path.stem.better
    {
        stroke: #ff694eff
    }
    circle.worse, path.stem.worse
    {
        stroke: #888888ff
    }
    text.label-percent.better 
    {
        fill: #ff694eff
    }
    text.label-percent.worse 
    {
        fill: #666666ff
    }
    
    ]]>
</style>
    <rect width="800" height="680" class="background"/>
    <path class="grid grid-minor" d="M 79.5,660 L 79.5,109"/>
    <path class="grid grid-minor" d="M 98.5,660 L 98.5,109"/>
    <path class="grid grid-minor" d="M 117.5,660 L 117.5,109"/>
    <path class="grid grid-minor" d="M 154.5,660 L 154.5,109"/>
    <path class="grid grid-minor" d="M 173.5,660 L 173.5,109"/>
    <path class="grid grid-minor" d="M 192.5,660 L 192.5,109"/>
    <path class="grid grid-minor" d="M 230.5,660 L 230.5,109"/>
    <path class="grid grid-minor" d="M 249.5,660 L 249.5,109"/>
    <path class="grid grid-minor" d="M 268.5,660 L 268.5,109"/>
    <path class="grid grid-minor" d="M 306.5,660 L 306.5,109"/>
    <path class="grid grid-minor" d="M 324.5,660 L 324.5,109"/>
    <path class="grid grid-minor" d="M 343.5,660 L 343.5,109"/>
    <path class="grid grid-minor" d="M 381.5,660 L 381.5,109"/>
    <path class="grid grid-minor" d="M 400.5,660 L 400.5,109"/>
    <path class="grid grid-minor" d="M 419.5,660 L 419.5,109"/>
    <path class="grid grid-minor" d="M 457.5,660 L 457.5,109"/>
    <path class="grid grid-minor" d="M 476.5,660 L 476.5,109"/>
    <path class="grid grid-minor" d="M 494.5,660 L 494.5,109"/>
    <path class="grid grid-minor" d="M 532.5,660 L 532.5,109"/>
    <path class="grid grid-minor" d="M 551.5,660 L 551.5,109"/>
    <path class="grid grid-minor" d="M 570.5,660 L 570.5,109"/>
    <path class="grid grid-minor" d="M 608.5,660 L 608.5,109"/>
    <path class="grid grid-minor" d="M 627.5,660 L 627.5,109"/>
    <path class="grid grid-minor" d="M 646.5,660 L 646.5,109"/>
    <path class="grid grid-minor" d="M 683.5,660 L 683.5,109"/>
    <path class="grid grid-minor" d="M 702.5,660 L 702.5,109"/>
    <path class="grid grid-minor" d="M 721.5,660 L 721.5,109"/>
    <path class="grid grid-major" d="M 60.5,660 L 60.5,109"/>
    <path class="grid grid-major" d="M 136.5,660 L 136.5,109"/>
    <path class="grid grid-major" d="M 211.5,660 L 211.5,109"/>
    <path class="grid grid-major" d="M 287.5,660 L 287.5,109"/>
    <path class="grid grid-major" d="M 362.5,660 L 362.5,109"/>
    <path class="grid grid-major" d="M 438.5,660 L 438.5,109"/>
    <path class="grid grid-major" d="M 513.5,660 L 513.5,109"/>
    <path class="grid grid-major" d="M 589.5,660 L 589.5,109"/>
    <path class="grid grid-major" d="M 664.5,660 L 664.5,109"/>
    <path class="grid grid-major" d="M 740.5,660 L 740.5,109"/>
    <path class="tick" d="M 60.5,102 L 60.5,90"/>
    <path class="tick" d="M 79.5,102 L 79.5,96"/>
    <path class="tick" d="M 98.5,102 L 98.5,96"/>
    <path class="tick" d="M 117.5,102 L 117.5,96"/>
    <path class="tick" d="M 136.5,102 L 136.5,90"/>
    <path class="tick" d="M 154.5,102 L 154.5,96"/>
    <path class="tick" d="M 173.5,102 L 173.5,96"/>
    <path class="tick" d="M 192.5,102 L 192.5,96"/>
    <path class="tick" d="M 211.5,102 L 211.5,90"/>
    <path class="tick" d="M 230.5,102 L 230.5,96"/>
    <path class="tick" d="M 249.5,102 L 249.5,96"/>
    <path class="tick" d="M 268.5,102 L 268.5,96"/>
    <path class="tick" d="M 287.5,102 L 287.5,90"/>
    <path class="tick" d="M 306.5,102 L 306.5,96"/>
    <path class="tick" d="M 324.5,102 L 324.5,96"/>
    <path class="tick" d="M 343.5,102 L 343.5,96"/>
    <path class="tick" d="M 362.5,102 L 362.5,90"/>
    <path class="tick" d="M 381.5,102 L 381.5,96"/>
    <path class="tick" d="M 400.5,102 L 400.5,96"/>
    <path class="tick" d="M 419.5,102 L 419.5,96"/>
    <path class="tick" d="M 438.5,102 L 438.5,90"/>
    <path class="tick" d="M 457.5,102 L 457.5,96"/>
    <path class="tick" d="M 476.5,102 L 476.5,96"/>
    <path class="tick" d="M 494.5,102 L 494.5,96"/>
    <path class="tick" d="M 513.5,102 L 513.5,90"/>
    <path class="tick" d="M 532.5,102 L 532.5,96"/>
    <path class="tick" d="M 551.5,102 L 551.5,96"/>
    <path class="tick" d="M 570.5,102 L 570.5,96"/>
    <path class="tick" d="M 589.5,102 L 589.5,90"/>
    <path class="tick" d="M 608.5,102 L 608.5,96"/>
    <path class="tick" d="M 627.5,102 L 627.5,96"/>
    <path class="tick" d="M 646.5,102 L 646.5,96"/>
    <path class="tick" d="M 664.5,102 L 664.5,90"/>
    <path class="tick" d="M 683.5,102 L 683.5,96"/>
    <path class="tick" d="M 702.5,102 L 702.5,96"/>
    <path class="tick" d="M 721.5,102 L 721.5,96"/>
    <path class="tick" d="M 740.5,102 L 740.5,90"/>
    <text x="60" y="82" class="label-numeric label-x">0.0</text>
    <text x="136" y="82" class="label-numeric label-x">0.2</text>
    <text x="211" y="82" class="label-numeric label-x">0.4</text>
    <text x="287" y="82" class="label-numeric label-x">0.6</text>
    <text x="362" y="82" class="label-numeric label-x">0.8</text>
    <text x="438" y="82" class="label-numeric label-x unity">1.0</text>
    <text x="513" y="82" class="label-numeric label-x">1.2</text>
    <text x="589" y="82" class="label-numeric label-x">1.4</text>
    <text x="664" y="82" class="label-numeric label-x">1.6</text>
    <text x="740" y="82" class="label-numeric label-x">1.8</text>
    <text x="400" y="40" class="title">relative file size (level 7)</text>
    <text x="400" y="60" class="subtitle">swift png size / libpng size </text>
    <text x="453.77777777777777" y="120.0" class="label-legend better">indexed8-monochrome-photographic</text>
    <text x="453.77777777777777" y="140.0" class="label-legend better">indexed8-monochrome-nonphotographic</text>
    <text x="453.77777777777777" y="160.0" class="label-legend better">rgb8-monochrome-photographic</text>
    <text x="453.77777777777777" y="180.0" class="label-legend better">rgb8-monochrome-nonphotographic</text>
    <text x="453.77777777777777" y="200.0" class="label-legend better">indexed8-color-photographic</text>
    <text x="421.77777777777777" y="220.0" class="label-legend worse">rgb16-monochrome-nonphotographic</text>
    <text x="421.77777777777777" y="240.0" class="label-legend worse">rgba16-monochrome-photographic</text>
    <text x="421.77777777777777" y="260.0" class="label-legend worse">rgb16-monochrome-photographic</text>
    <text x="421.77777777777777" y="280.0" class="label-legend worse">v8-monochrome-photographic</text>
    <text x="421.77777777777777" y="300.0" class="label-legend worse">va8-monochrome-photographic</text>
    <text x="421.77777777777777" y="320.0" class="label-legend worse">rgba8-color-photographic</text>
    <text x="421.77777777777777" y="340.0" class="label-legend worse">rgb8-color-photographic</text>
    <text x="421.77777777777777" y="360.0" class="label-legend worse">va8-monochrome-nonphotographic</text>
    <text x="421.77777777777777" y="380.0" class="label-legend worse">rgba8-color-nonphotographic</text>
    <text x="421.77777777777777" y="400.0" class="label-legend worse">va16-monochrome-photographic</text>
    <text x="421.77777777777777" y="420.0" class="label-legend worse">rgba16-monochrome-nonphotographic</text>
    <text x="421.77777777777777" y="440.0" class="label-legend worse">va16-monochrome-nonphotographic</text>
    <text x="421.77777777777777" y="460.0" class="label-legend worse">rgb8-color-nonphotographic</text>
    <text x="421.77777777777777" y="480.0" class="label-legend worse">v8-monochrome-nonphotographic</text>
    <text x="421.77777777777777" y="500.0" class="label-legend worse">v16-monochrome-photographic</text>
    <text x="421.77777777777777" y="520.0" class="label-legend worse">rgb16-color-photographic</text>
    <text x="421.77777777777777" y="540.0" class="label-legend worse">rgba16-color-photographic</text>
    <text x="421.77777777777777" y="560.0" class="label-legend worse">v16-monochrome-nonphotographic</text>
    <text x="421.77777777777777" y="580.0" class="label-legend worse">rgba16-color-nonphotographic</text>
    <text x="421.77777777777777" y="600.0" class="label-legend worse">rgb16-color-nonphotographic</text>
    <text x="421.77777777777777" y="620.0" class="label-legend worse">rgba8-monochrome-nonphotographic</text>
    <text x="421.77777777777777" y="640.0" class="label-legend worse">rgba8-monochrome-photographic</text>
    <text x="421.77777777777777" y="660.0" class="label-legend worse">indexed8-color-nonphotographic</text>
    <text x="326.9348918748289" y="120.0" class="label-percent better">-25.11 %</text>
    <text x="333.2454026856901" y="140.0" class="label-percent better">-23.44 %</text>
    <text x="397.55694073414463" y="160.0" class="label-percent better">-6.41 %</text>
    <text x="401.34926902722935" y="180.0" class="label-percent better">-5.41 %</text>
    <text x="415.02834659296246" y="200.0" class="label-percent better">-1.79 %</text>
    <text x="455.56172584510733" y="220.0" class="label-percent worse">+0.47 %</text>
    <text x="455.57668065908314" y="240.0" class="label-percent worse">+0.48 %</text>
    <text x="456.92835938271406" y="260.0" class="label-percent worse">+0.83 %</text>
    <text x="459.5694135280739" y="280.0" class="label-percent worse">+1.53 %</text>
    <text x="459.71156302190786" y="300.0" class="label-percent worse">+1.57 %</text>
    <text x="460.587292337058" y="320.0" class="label-percent worse">+1.80 %</text>
    <text x="460.7212679217626" y="340.0" class="label-percent worse">+1.84 %</text>
    <text x="461.0369528140989" y="360.0" class="label-percent worse">+1.92 %</text>
    <text x="461.30952753383536" y="380.0" class="label-percent worse">+1.99 %</text>
    <text x="461.74469591485143" y="400.0" class="label-percent worse">+2.11 %</text>
    <text x="461.91952907838976" y="420.0" class="label-percent worse">+2.16 %</text>
    <text x="461.91952907838976" y="440.0" class="label-percent worse">+2.16 %</text>
    <text x="462.1861180063638" y="460.0" class="label-percent worse">+2.23 %</text>
    <text x="463.59990645591733" y="480.0" class="label-percent worse">+2.60 %</text>
    <text x="465.89612449427034" y="500.0" class="label-percent worse">+3.21 %</text>
    <text x="466.39407404934093" y="520.0" class="label-percent worse">+3.34 %</text>
    <text x="466.8183803929048" y="540.0" class="label-percent worse">+3.45 %</text>
    <text x="466.9714776087449" y="560.0" class="label-percent worse">+3.49 %</text>
    <text x="467.248762731531" y="580.0" class="label-percent worse">+3.57 %</text>
    <text x="467.4413519517901" y="600.0" class="label-percent worse">+3.62 %</text>
    <text x="473.6953200313079" y="620.0" class="label-percent worse">+5.27 %</text>
    <text x="476.8094806647695" y="640.0" class="label-percent worse">+6.10 %</text>
    <text x="491.0530553066793" y="660.0" class="label-percent worse">+9.87 %</text>
    <path class="stem better" d="M 437.77777777777777,120.0 L 346.9348918748289,120.0"/>
    <path class="stem better" d="M 437.77777777777777,140.0 L 353.2454026856901,140.0"/>
    <path class="stem better" d="M 437.77777777777777,160.0 L 417.55694073414463,160.0"/>
    <path class="stem better" d="M 437.77777777777777,180.0 L 421.34926902722935,180.0"/>
    <path class="stem better" d="M 437.77777777777777,200.0 L 435.02834659296246,200.0"/>
    <path class="stem worse" d="M 437.77777777777777,280.0 L 439.5694135280739,280.0"/>
    <path class="stem worse" d="M 437.77777777777777,300.0 L 439.71156302190786,300.0"/>
    <path class="stem worse" d="M 437.77777777777777,320.0 L 440.587292337058,320.0"/>
    <path class="stem worse" d="M 437.77777777777777,340.0 L 440.7212679217626,340.0"/>
    <path class="stem worse" d="M 437.77777777777777,360.0 L 441.0369528140989,360.0"/>
    <path class="stem worse" d="M 437.77777777777777,380.0 L 441.30952753383536,380.0"/>
    <path class="stem worse" d="M 437.77777777777777,400.0 L 441.74469591485143,400.0"/>
    <path class="stem worse" d="M 437.77777777777777,420.0 L 441.91952907838976,420.0"/>
    <path class="stem worse" d="M 437.77777777777777,440.0 L 441.91952907838976,440.0"/>
    <path class="stem worse" d="M 437.77777777777777,460.0 L 442.1861180063638,460.0"/>
    <path class="stem worse" d="M 437.77777777777777,480.0 L 443.59990645591733,480.0"/>
    <path class="stem worse" d="M 437.77777777777777,500.0 L 445.89612449427034,500.0"/>
    <path class="stem worse" d="M 437.77777777777777,520.0 L 446.39407404934093,520.0"/>
    <path class="stem worse" d="M 437.77777777777777,540.0 L 446.8183803929048,540.0"/>
    <path class="stem worse" d="M 437.77777777777777,560.0 L 446.9714776087449,560.0"/>
    <path class="stem worse" d="M 437.77777777777777,580.0 L 447.248762731531,580.0"/>
    <path class="stem worse" d="M 437.77777777777777,600.0 L 447.4413519517901,600.0"/>
    <path class="stem worse" d="M 437.77777777777777,620.0 L 453.6953200313079,620.0"/>
    <path class="stem worse" d="M 437.77777777777777,640.0 L 456.8094806647695,640.0"/>
    <path class="stem worse" d="M 437.77777777777777,660.0 L 471.0530553066793,660.0"/>
    <circle class="dot better" cx="342.9348918748289" cy="120.0" r="4"/>
    <circle class="dot better" cx="349.2454026856901" cy="140.0" r="4"/>
    <circle class="dot better" cx="413.55694073414463" cy="160.0" r="4"/>
    <circle class="dot better" cx="417.34926902722935" cy="180.0" r="4"/>
    <circle class="dot better" cx="431.02834659296246" cy="200.0" r="4"/>
    <circle class="dot worse" cx="439.56172584510733" cy="220.0" r="4"/>
    <circle class="dot worse" cx="439.57668065908314" cy="240.0" r="4"/>
    <circle class="dot worse" cx="440.92835938271406" cy="260.0" r="4"/>
    <circle class="dot worse" cx="443.5694135280739" cy="280.0" r="4"/>
    <circle class="dot worse" cx="443.71156302190786" cy="300.0" r="4"/>
    <circle class="dot worse" cx="444.587292337058" cy="320.0" r="4"/>
    <circle class="dot worse" cx="444.7212679217626" cy="340.0" r="4"/>
    <circle class="dot worse" cx="445.0369528140989" cy="360.0" r="4"/>
    <circle class="dot worse" cx="445.30952753383536" cy="380.0" r="4"/>
    <circle class="dot worse" cx="445.74469591485143" cy="400.0" r="4"/>
    <circle class="dot worse" cx="445.91952907838976" cy="420.0" r="4"/>
    <circle class="dot worse" cx="445.91952907838976" cy="440.0" r="4"/>
    <circle class="dot worse" cx="446.1861180063638" cy="460.0" r="4"/>
    <circle class="dot worse" cx="447.59990645591733" cy="480.0" r="4"/>
    <circle class="dot worse" cx="449.89612449427034" cy="500.0" r="4"/>
    <circle class="dot worse" cx="450.39407404934093" cy="520.0" r="4"/>
    <circle class="dot worse" cx="450.8183803929048" cy="540.0" r="4"/>
    <circle class="dot worse" cx="450.9714776087449" cy="560.0" r="4"/>
    <circle class="dot worse" cx="451.248762731531" cy="580.0" r="4"/>
    <circle class="dot worse" cx="451.4413519517901" cy="600.0" r="4"/>
    <circle class="dot worse" cx="457.6953200313079" cy="620.0" r="4"/>
    <circle class="dot worse" cx="460.8094806647695" cy="640.0" r="4"/>
    <circle class="dot worse" cx="475.0530553066793" cy="660.0" r="4"/>
</svg>
    