<?xml version="1.0" encoding="UTF-8"?>
    <!DOCTYPE svg PUBLIC "-//W3C//DTD SVG 1.1//EN"
  "http://www.w3.org/Graphics/SVG/1.1/DTD/svg11.dtd">
<svg xmlns="http://www.w3.org/2000/svg" xmlns:xlink="http://www.w3.org/1999/xlink" width="800" height="400" viewBox="0 0 800 400">
<style type="text/css" >
    <![CDATA[
        
    rect.background 
    {
        fill:   white;
    }
    
    path.grid 
    {
        stroke-width: 1px;
        fill:   none;
    }
    path.grid-major 
    {
        stroke: #eeeeeeff;
    }
    path.grid-minor 
    {
        stroke: #f5f5f5ff;
    }
    
    path.tick 
    {
        stroke-width: 1px;
        stroke: #333333ff;
        fill:   none;
    }
    
    text
    {
        fill: #333333ff;
        font-family: 'SF Mono';
    }
    text.label-numeric 
    {
        font-size: 12px;
    }
    text.label-x 
    {
        text-anchor: middle; 
        dominant-baseline: hanging;
    }
    text.label-y 
    {
        text-anchor: end; 
        dominant-baseline: middle;
    }
    text.label-legend 
    {
        font-size: 12px;
        text-anchor: begin; 
        dominant-baseline: middle;
    }
    
    text.label-axis 
    {
        font-size: 14px;
        font-weight: 700;
    }
    text.label-vertical.label-y 
    {
        text-anchor: middle; 
        transform-box: fill-box;
        transform-origin: center;
        transform: rotate(-90deg);
    }
    
    text.title, text.subtitle 
    {
        text-anchor: middle; 
    }
    text.title 
    {
        font-size: 20px;
    }
    text.subtitle 
    {
        font-size: 12px;
    }
    
    path.density-curve 
    {
        stroke-linejoin: round;
        stroke-width: 2px;
        fill:   none;
    }
    
    
    path.baseline 
    {
        stroke: #aaaaaaff;
    }
    
    path.swift 
    {
        stroke: #ff694eff;
    }
    
    ]]>
</style>
    <rect width="800" height="400" class="background"/>
    <path class="grid grid-minor" d="M 143.5,320 L 143.5,79"/>
    <path class="grid grid-minor" d="M 167.5,320 L 167.5,79"/>
    <path class="grid grid-minor" d="M 190.5,320 L 190.5,79"/>
    <path class="grid grid-minor" d="M 237.5,320 L 237.5,79"/>
    <path class="grid grid-minor" d="M 260.5,320 L 260.5,79"/>
    <path class="grid grid-minor" d="M 283.5,320 L 283.5,79"/>
    <path class="grid grid-minor" d="M 330.5,320 L 330.5,79"/>
    <path class="grid grid-minor" d="M 353.5,320 L 353.5,79"/>
    <path class="grid grid-minor" d="M 377.5,320 L 377.5,79"/>
    <path class="grid grid-minor" d="M 423.5,320 L 423.5,79"/>
    <path class="grid grid-minor" d="M 447.5,320 L 447.5,79"/>
    <path class="grid grid-minor" d="M 470.5,320 L 470.5,79"/>
    <path class="grid grid-minor" d="M 517.5,320 L 517.5,79"/>
    <path class="grid grid-minor" d="M 540.5,320 L 540.5,79"/>
    <path class="grid grid-minor" d="M 563.5,320 L 563.5,79"/>
    <path class="grid grid-minor" d="M 610.5,320 L 610.5,79"/>
    <path class="grid grid-minor" d="M 633.5,320 L 633.5,79"/>
    <path class="grid grid-minor" d="M 657.5,320 L 657.5,79"/>
    <path class="grid grid-minor" d="M 120,299.5 L 681,299.5"/>
    <path class="grid grid-minor" d="M 120,259.5 L 681,259.5"/>
    <path class="grid grid-minor" d="M 120,219.5 L 681,219.5"/>
    <path class="grid grid-minor" d="M 120,179.5 L 681,179.5"/>
    <path class="grid grid-minor" d="M 120,139.5 L 681,139.5"/>
    <path class="grid grid-minor" d="M 120,99.5 L 681,99.5"/>
    <path class="grid grid-major" d="M 120.5,320 L 120.5,79"/>
    <path class="grid grid-major" d="M 213.5,320 L 213.5,79"/>
    <path class="grid grid-major" d="M 307.5,320 L 307.5,79"/>
    <path class="grid grid-major" d="M 400.5,320 L 400.5,79"/>
    <path class="grid grid-major" d="M 493.5,320 L 493.5,79"/>
    <path class="grid grid-major" d="M 587.5,320 L 587.5,79"/>
    <path class="grid grid-major" d="M 680.5,320 L 680.5,79"/>
    <path class="grid grid-major" d="M 120,319.5 L 681,319.5"/>
    <path class="grid grid-major" d="M 120,279.5 L 681,279.5"/>
    <path class="grid grid-major" d="M 120,239.5 L 681,239.5"/>
    <path class="grid grid-major" d="M 120,199.5 L 681,199.5"/>
    <path class="grid grid-major" d="M 120,159.5 L 681,159.5"/>
    <path class="grid grid-major" d="M 120,119.5 L 681,119.5"/>
    <path class="grid grid-major" d="M 120,79.5 L 681,79.5"/>
    <path class="tick" d="M 120.5,328 L 120.5,340"/>
    <path class="tick" d="M 143.5,328 L 143.5,334"/>
    <path class="tick" d="M 167.5,328 L 167.5,334"/>
    <path class="tick" d="M 190.5,328 L 190.5,334"/>
    <path class="tick" d="M 213.5,328 L 213.5,340"/>
    <path class="tick" d="M 237.5,328 L 237.5,334"/>
    <path class="tick" d="M 260.5,328 L 260.5,334"/>
    <path class="tick" d="M 283.5,328 L 283.5,334"/>
    <path class="tick" d="M 307.5,328 L 307.5,340"/>
    <path class="tick" d="M 330.5,328 L 330.5,334"/>
    <path class="tick" d="M 353.5,328 L 353.5,334"/>
    <path class="tick" d="M 377.5,328 L 377.5,334"/>
    <path class="tick" d="M 400.5,328 L 400.5,340"/>
    <path class="tick" d="M 423.5,328 L 423.5,334"/>
    <path class="tick" d="M 447.5,328 L 447.5,334"/>
    <path class="tick" d="M 470.5,328 L 470.5,334"/>
    <path class="tick" d="M 493.5,328 L 493.5,340"/>
    <path class="tick" d="M 517.5,328 L 517.5,334"/>
    <path class="tick" d="M 540.5,328 L 540.5,334"/>
    <path class="tick" d="M 563.5,328 L 563.5,334"/>
    <path class="tick" d="M 587.5,328 L 587.5,340"/>
    <path class="tick" d="M 610.5,328 L 610.5,334"/>
    <path class="tick" d="M 633.5,328 L 633.5,334"/>
    <path class="tick" d="M 657.5,328 L 657.5,334"/>
    <path class="tick" d="M 680.5,328 L 680.5,340"/>
    <path class="tick" d="M 112,319.5 L 100,319.5"/>
    <path class="tick" d="M 112,299.5 L 106,299.5"/>
    <path class="tick" d="M 112,279.5 L 100,279.5"/>
    <path class="tick" d="M 112,259.5 L 106,259.5"/>
    <path class="tick" d="M 112,239.5 L 100,239.5"/>
    <path class="tick" d="M 112,219.5 L 106,219.5"/>
    <path class="tick" d="M 112,199.5 L 100,199.5"/>
    <path class="tick" d="M 112,179.5 L 106,179.5"/>
    <path class="tick" d="M 112,159.5 L 100,159.5"/>
    <path class="tick" d="M 112,139.5 L 106,139.5"/>
    <path class="tick" d="M 112,119.5 L 100,119.5"/>
    <path class="tick" d="M 112,99.5 L 106,99.5"/>
    <path class="tick" d="M 112,79.5 L 100,79.5"/>
    <path class="baseline density-curve" d="M 120.0,320.0 L 121.4,320.0 L 122.8,320.0 L 124.2,320.0 L 125.6,319.99999999999994 L 127.0,319.9999999999999 L 128.4,319.9999999999996 L 129.8,319.9999999999985 L 131.2,319.99999999999494 L 132.6,319.99999999998306 L 134.0,319.99999999994475 L 135.4,319.99999999982464 L 136.8,319.9999999994585 L 138.2,319.9999999983741 L 139.6,319.99999999525147 L 141.0,319.9999999865118 L 142.4,319.99999996273635 L 143.8,319.9999998998726 L 145.2,319.9999997383281 L 146.6,319.9999993348837 L 148.0,319.9999983557255 L 149.4,319.9999960464493 L 150.8,319.99999075436904 L 152.2,319.9999789708331 L 153.6,319.9999534795568 L 155.0,319.9998999074199 L 156.4,319.99979054236803 L 157.8,319.9995736887842 L 159.2,319.9991560949372 L 160.6,319.99837521204654 L 162.0,319.9969574617068 L 163.4,319.99445869978575 L 164.8,319.9901842481376 L 166.2,319.98308890509674 L 167.6,319.9716628514524 L 169.0,319.953817564616 L 170.4,319.92679617399324 L 171.8,319.8871433919244 L 173.2,319.8307781373987 L 174.6,319.75321303730976 L 176.0,319.6499547253468 L 177.4,319.51709412372236 L 178.8,319.35205666728257 L 180.2,319.1544333902412 L 181.6,318.9267648476734 L 183.0,318.67511489567846 L 184.4,318.4092650970382 L 185.8,318.14239373278605 L 187.2,317.8901781298943 L 188.6,317.6693654646798 L 190.0,317.4959740092316 L 191.4,317.3833854102411 L 192.8,317.3406410096752 L 194.2,317.37124273180746 L 195.60000000000002,317.47267910308545 L 197.0,317.6367652859658 L 198.4,317.8507330173421 L 199.8,318.09886862520466 L 201.2,318.36440697841755 L 202.6,318.63136487778553 L 204.0,318.88603947933956 L 205.39999999999998,319.11798944933804 L 206.8,319.3204316553249 L 208.2,319.49009536091773 L 209.60000000000002,319.62665639554183 L 211.0,319.73191418802037 L 212.4,319.80887569660337 L 213.8,319.8608824618852 L 215.2,319.89087522136833 L 216.6,319.90084921209615 L 218.0,319.891522459162 L 219.39999999999998,319.86222263300334 L 220.8,319.810992853288 L 222.2,319.73491607877753 L 223.6,319.6306527763173 L 225.0,319.4951702511517 L 226.4,319.3266115325309 L 227.8,319.1252104075382 L 229.2,318.8941168223279 L 230.60000000000002,318.63996766971036 L 232.0,318.37303681989647 L 233.4,318.1068354756212 L 234.8,317.85711049272624 L 236.2,317.6402929918106 L 237.6,317.47155996002635 L 239.0,317.3627590878536 L 240.39999999999998,317.3204855320693 L 241.8,317.34457364699864 L 243.2,317.4271798192848 L 244.60000000000002,317.55250642800814 L 246.0,317.6970879792098 L 247.4,317.83046909591366 L 248.8,317.91608234951406 L 250.20000000000002,317.91219454928705 L 251.6,317.7729202183698 L 253.0,317.44946307046837 L 254.4,316.8918860333959 L 255.79999999999998,316.0517697871065 L 257.2,314.8860530595831 L 258.6,313.36213628968653 L 260.0,311.46399271998234 L 261.4,309.19862748872725 L 262.8,306.60185001356234 L 264.20000000000005,303.7420886494312 L 265.6,300.7209799051393 L 267.0,297.66976736979234 L 268.4,294.74114094696756 L 269.8,292.09694864574334 L 271.20000000000005,289.8930640645782 L 272.6,288.2633972387598 L 274.0,287.3054097925512 L 275.4,287.0694164939929 L 276.8,287.55340807272916 L 278.2,288.70421559763776 L 279.6,290.42475154575396 L 281.0,292.58604793355613 L 282.4,295.0420872431108 L 283.79999999999995,297.6451269830073 L 285.2,300.2593798825961 L 286.6,302.7714439355152 L 288.0,305.09661790290335 L 289.4,307.18100266976256 L 290.79999999999995,308.9999199070404 L 292.2,310.55358384573873 L 293.6,311.8611205338342 L 295.0,312.95398232907377 L 296.4,313.8696255332817 L 297.8,314.646079709863 L 299.20000000000005,315.3177934786253 L 300.6,315.91292339247093 L 302.0,316.45204974309144 L 303.4,316.9481562986097 L 304.8,317.40760057507646 L 306.20000000000005,317.8317317852569 L 307.6,318.2187914973397 L 309.0,318.56576022334684 L 310.4,318.86988634584407 L 311.8,319.1297371492114 L 313.2,319.3457238427396 L 314.6,319.52015117152683 L 316.0,319.6569106327461 L 317.4,319.76096683252905 L 318.79999999999995,319.8377814197514 L 320.2,319.892788112568 L 321.6,319.93098879480885 L 323.0,319.95669697239913 L 324.4,319.973419891055 L 325.79999999999995,319.9838484558754 L 327.2,319.9899146976816 L 328.6,319.99287714075774 L 330.0,319.99340131843235 L 331.4,319.9916125603888 L 332.8,319.98710892991755 L 334.20000000000005,319.9789329982899 L 335.6,319.96551204751114 L 337.0,319.94458746200723 L 338.4,319.91316499582604 L 339.8,319.8675264530793 L 341.20000000000005,319.80334669769616 L 342.6,319.7159532127194 L 344.0,319.6007439202389 L 345.4,319.4537394327701 L 346.8,319.27218850873805 L 348.2,319.055075258176 L 349.6,318.803303875861 L 351.0,318.5192758546771 L 352.4,318.205542109099 L 353.79999999999995,317.8622236964492 L 355.2,317.48296254695623 L 356.6,317.04929756276294 L 358.0,316.52356989908264 L 359.4,315.8407520695567 L 360.79999999999995,314.89997353800663 L 362.2,313.5569728036184 L 363.6,311.6192048747904 L 365.0,308.8457854099873 L 366.4,304.9547074212335 L 367.8,299.6396176518457 L 369.20000000000005,292.5976705427842 L 370.6,283.56843904125276 L 372.0,272.3815727604507 L 373.4,259.0081303522903 L 374.8,243.6078340072932 L 376.2,226.5626735954018 L 377.6,208.4871324529822 L 379.0,190.20739302298617 L 380.40000000000003,172.70629037854786 L 381.8,157.03693611121656 L 383.2,144.21461820580114 L 384.59999999999997,135.10219121474586 L 386.0,130.30714378924483 L 387.4,130.10782997996685 L 388.8,134.42183410141655 L 390.2,142.82197520217665 L 391.59999999999997,154.5967285209919 L 393.0,168.84388248866009 L 394.4,184.58087338484853 L 395.8,200.85353783517073 L 397.2,216.827105912344 L 398.6,231.84829755267236 L 400.0,245.47393104556352 L 401.4,257.46788492483904 L 402.8,267.7732272661267 L 404.2,276.46906271574466 L 405.6,283.72203030586047 L 407.0,289.7408515680954 L 408.40000000000003,294.73964228778385 L 409.79999999999995,298.9126924474209 L 411.2,302.42077121787287 L 412.59999999999997,305.3871444659965 L 414.0,307.9005306277026 L 415.4,310.0220639233232 L 416.8,311.7937412837986 L 418.2,313.2465218737675 L 419.6,314.4069847229337 L 421.0,315.3020704864745 L 422.40000000000003,315.9618671997828 L 423.8,316.4206498609372 L 425.20000000000005,316.7164964347082 L 426.59999999999997,316.889838016596 L 428.0,316.981307045594 L 429.4,317.0292498319502 L 430.8,317.0672694611315 L 432.2,317.1221478142009 L 433.6,317.212443291187 L 435.0,317.34796463565885 L 436.4,317.5301871729713 L 437.8,317.7535272746294 L 439.2,318.0072545221266 L 440.6,318.27772871710386 L 442.0,318.5506200937423 L 443.40000000000003,318.81280907211703 L 444.79999999999995,319.0537531742478 L 446.2,319.26622797670893 L 447.59999999999997,319.4464670486237 L 449.0,319.59381801494175 L 450.4,319.7100837279415 L 451.8,319.79872671858476 L 453.2,319.8640896176945 L 454.6,319.91073803586494 L 456.0,319.9429804475255 L 457.40000000000003,319.96457398803267 L 458.8,319.9785927839682 L 460.20000000000005,319.98741838165586 L 461.59999999999997,319.99280798645276 L 463.0,319.99600145776253 L 464.4,319.997837830353 L 465.8,319.9988628584632 L 467.2,319.99941833113127 L 468.6,319.9997106166327 L 470.0,319.99985997431764 L 471.4,319.99993410109846 L 472.8,319.99996983627506 L 474.2,319.9999865714825 L 475.6,319.99999418556587 L 477.0,319.99999755137026 L 478.40000000000003,319.9999989970598 L 479.79999999999995,319.9999996004572 L 481.2,319.999999845194 L 482.59999999999997,319.9999999416624 L 484.0,319.9999999786181 L 485.4,319.9999999923778 L 486.8,319.9999999973573 L 488.2,319.99999999910887 L 489.6,319.9999999997077 L 491.0,319.9999999999068 L 492.40000000000003,319.99999999997107 L 493.8,319.99999999999125 L 495.20000000000005,319.99999999999744 L 496.59999999999997,319.99999999999926 L 498.0,319.9999999999998 L 499.4,319.99999999999994 L 500.8,320.0 L 502.2,320.0 L 503.6,320.0 L 505.0,320.0 L 506.4,320.0 L 507.8,320.0 L 509.2,320.0 L 510.6,320.0 L 512.0,320.0 L 513.4000000000001,320.0 L 514.8,320.0 L 516.2,320.0 L 517.5999999999999,320.0 L 519.0,320.0 L 520.4,320.0 L 521.8,320.0 L 523.2,320.0 L 524.6,320.0 L 526.0,320.0 L 527.4000000000001,320.0 L 528.8,320.0 L 530.2,320.0 L 531.5999999999999,320.0 L 533.0,320.0 L 534.4,320.0 L 535.8,320.0 L 537.2,320.0 L 538.6,320.0 L 540.0,320.0 L 541.4,320.0 L 542.8,320.0 L 544.2,320.0 L 545.6,320.0 L 547.0,320.0 L 548.4000000000001,320.0 L 549.8,320.0 L 551.2,320.0 L 552.5999999999999,320.0 L 554.0,320.0 L 555.4,320.0 L 556.8,320.0 L 558.2,320.0 L 559.6,320.0 L 561.0,320.0 L 562.4000000000001,320.0 L 563.8,320.0 L 565.2,320.0 L 566.5999999999999,320.0 L 568.0,320.0 L 569.4,320.0 L 570.8,320.0 L 572.2,320.0 L 573.6,320.0 L 575.0,320.0 L 576.4,320.0 L 577.8,320.0 L 579.2,320.0 L 580.6,320.0 L 582.0,320.0 L 583.4000000000001,320.0 L 584.8,320.0 L 586.2,320.0 L 587.5999999999999,320.0 L 589.0,320.0 L 590.4,320.0 L 591.8,320.0 L 593.2,320.0 L 594.6,320.0 L 596.0,320.0 L 597.4000000000001,320.0 L 598.8,320.0 L 600.2,320.0 L 601.5999999999999,320.0 L 603.0,320.0 L 604.4,320.0 L 605.8,320.0 L 607.2,320.0 L 608.6,320.0 L 610.0,320.0 L 611.4,320.0 L 612.8,320.0 L 614.2,320.0 L 615.6,320.0 L 617.0,320.0 L 618.4000000000001,320.0 L 619.8,320.0 L 621.2,320.0 L 622.5999999999999,320.0 L 624.0,320.0 L 625.4,320.0 L 626.8,320.0 L 628.2,320.0 L 629.6,320.0 L 631.0,320.0 L 632.4,320.0 L 633.8,320.0 L 635.2,320.0 L 636.6,320.0 L 638.0,320.0 L 639.4,320.0 L 640.8000000000001,320.0 L 642.2,320.0 L 643.6,320.0 L 645.0,320.0 L 646.4,320.0 L 647.8,320.0 L 649.1999999999999,320.0 L 650.6,320.0 L 652.0,320.0 L 653.4,320.0 L 654.8,320.0 L 656.2,320.0 L 657.6,320.0 L 659.0,320.0 L 660.4,320.0 L 661.8000000000001,320.0 L 663.1999999999999,320.0 L 664.6,320.0 L 666.0,320.0 L 667.4,320.0 L 668.8,320.0 L 670.2,320.0 L 671.6,320.0 L 673.0,320.0 L 674.4,320.0 L 675.8000000000001,320.0 L 677.2,320.0 L 678.6,320.0 L 680.0,320.0"/>
    <path class="swift density-curve" d="M 120.0,320.0 L 121.4,320.0 L 122.8,320.0 L 124.2,320.0 L 125.6,320.0 L 127.0,320.0 L 128.4,320.0 L 129.8,320.0 L 131.2,320.0 L 132.6,320.0 L 134.0,320.0 L 135.4,320.0 L 136.8,320.0 L 138.2,320.0 L 139.6,320.0 L 141.0,320.0 L 142.4,320.0 L 143.8,320.0 L 145.2,320.0 L 146.6,320.0 L 148.0,320.0 L 149.4,320.0 L 150.8,320.0 L 152.2,320.0 L 153.6,320.0 L 155.0,320.0 L 156.4,320.0 L 157.8,320.0 L 159.2,320.0 L 160.6,320.0 L 162.0,320.0 L 163.4,320.0 L 164.8,320.0 L 166.2,320.0 L 167.6,320.0 L 169.0,320.0 L 170.4,320.0 L 171.8,320.0 L 173.2,320.0 L 174.6,320.0 L 176.0,320.0 L 177.4,320.0 L 178.8,320.0 L 180.2,320.0 L 181.6,320.0 L 183.0,320.0 L 184.4,320.0 L 185.8,320.0 L 187.2,320.0 L 188.6,320.0 L 190.0,320.0 L 191.4,320.0 L 192.8,320.0 L 194.2,320.0 L 195.60000000000002,320.0 L 197.0,320.0 L 198.4,320.0 L 199.8,320.0 L 201.2,320.0 L 202.6,320.0 L 204.0,319.99999999999994 L 205.39999999999998,319.9999999999999 L 206.8,319.9999999999995 L 208.2,319.9999999999982 L 209.60000000000002,319.9999999999938 L 211.0,319.99999999997937 L 212.4,319.99999999993287 L 213.8,319.999999999788 L 215.2,319.99999999934835 L 216.6,319.9999999980523 L 218.0,319.9999999943381 L 219.39999999999998,319.99999998399164 L 220.8,319.99999995597824 L 222.2,319.99999988225983 L 223.6,319.9999996937202 L 225.0,319.99999922509556 L 226.4,319.99999809316 L 227.8,319.999995436305 L 229.2,319.999989376803 L 230.60000000000002,319.999975949167 L 232.0,319.99994704081695 L 233.4,319.9998865802475 L 234.8,319.9997637496949 L 236.2,319.9995213783655 L 237.6,319.99905691999294 L 239.0,319.99819265519136 L 240.39999999999998,319.9966312424173 L 241.8,319.99389290365184 L 243.2,319.98923197505326 L 244.60000000000002,319.98153396696586 L 246.0,319.9692002320907 L 247.4,319.9500359571332 L 248.8,319.9211677333138 L 250.20000000000002,319.87902745827546 L 251.6,319.81944645927587 L 253.0,319.7379031900379 L 254.4,319.6299553140096 L 255.79999999999998,319.491859688455 L 257.2,319.32134236357035 L 258.6,319.11843073922404 L 260.0,318.88621216139046 L 261.4,318.6313517697316 L 262.8,318.36420168410416 L 264.20000000000005,318.0983732655139 L 265.6,317.84972445942645 L 267.0,317.6348234079631 L 268.4,317.4690649083283 L 269.8,317.36470929703023 L 271.20000000000005,317.3291575135544 L 272.6,317.3637557434313 L 274.0,317.4633391874755 L 275.4,317.6165958029301 L 276.8,317.8071886009474 L 278.2,318.0154537378937 L 279.6,318.22041817938884 L 281.0,318.40186652224776 L 282.4,318.5422248373437 L 283.79999999999995,318.6280990015884 L 285.2,318.65137908484684 L 286.6,318.60987757430894 L 288.0,318.50749744502855 L 289.4,318.35393106314507 L 290.79999999999995,318.16388877970104 L 292.2,317.95586637351454 L 293.6,317.75049680732303 L 295.0,317.5685947034962 L 296.4,317.4290774150489 L 297.8,317.347009965858 L 299.20000000000005,317.33204619910447 L 300.6,317.38750740661607 L 302.0,317.5102507496579 L 303.4,317.6913492575337 L 304.8,317.9174632058254 L 306.20000000000005,318.1726639061373 L 307.6,318.44040390496696 L 309.0,318.70532620753175 L 310.4,318.9546653569867 L 311.8,319.17909549066076 L 313.2,319.3729969051898 L 314.6,319.5342155393099 L 316.0,319.663459198524 L 317.4,319.7635020492421 L 318.79999999999995,319.83835819709986 L 320.2,319.8925475124483 L 321.6,319.93052706397356 L 323.0,319.9563131059184 L 324.4,319.97328082819604 L 325.79999999999995,319.98410607703096 L 327.2,319.9908044969345 L 328.6,319.99482564578324 L 330.0,319.99716813147444 L 331.4,319.99849260772703 L 332.8,319.999219602717 L 334.20000000000005,319.9996070462135 L 335.6,319.9998075564002 L 337.0,319.9999083353824 L 338.4,319.9999575344988 L 339.8,319.99998086594394 L 341.20000000000005,319.99999161478706 L 342.6,319.99999642597646 L 344.0,319.99999851837947 L 345.4,319.99999940261705 L 346.8,319.99999976573633 L 348.2,319.9999999106503 L 349.6,319.999999966855 L 351.0,319.99999998804145 L 352.4,319.9999999958036 L 353.79999999999995,319.9999999985678 L 355.2,319.99999999952456 L 356.6,319.9999999998465 L 358.0,319.9999999999518 L 359.4,319.9999999999853 L 360.79999999999995,319.9999999999956 L 362.2,319.99999999999875 L 363.6,319.99999999999966 L 365.0,319.9999999999999 L 366.4,319.99999999999994 L 367.8,319.99999999999994 L 369.20000000000005,319.9999999999999 L 370.6,319.9999999999996 L 372.0,319.99999999999864 L 373.4,319.9999999999953 L 374.8,319.999999999984 L 376.2,319.9999999999479 L 377.6,319.9999999998343 L 379.0,319.99999999948767 L 380.40000000000003,319.9999999984593 L 381.8,319.9999999954937 L 383.2,319.9999999871805 L 384.59999999999997,319.9999999645296 L 386.0,319.9999999045428 L 387.4,319.9999997501373 L 388.8,319.999999363868 L 390.2,319.9999984247504 L 391.59999999999997,319.9999962058728 L 393.0,319.9999911112748 L 394.4,319.9999797447409 L 395.8,319.99995510338215 L 397.2,319.99990320007356 L 398.6,319.9997969833501 L 400.0,319.99958581436266 L 401.4,319.9991779865854 L 402.8,319.99841291695077 L 404.2,319.99701889824837 L 405.6,319.9945520442012 L 407.0,319.9903128149658 L 408.40000000000003,319.98323893379336 L 409.79999999999995,319.97177820927186 L 411.2,319.95375206650317 L 412.59999999999997,319.9262301024189 L 414.0,319.88544634065033 L 415.4,319.82679651562364 L 416.8,319.7449591360313 L 418.2,319.63417748790926 L 419.6,319.4887223405237 L 421.0,319.3035255690489 L 422.40000000000003,319.0749365157433 L 423.8,318.8015129391634 L 425.20000000000005,318.48472696642057 L 426.59999999999997,318.1294539857857 L 428.0,317.74412620106506 L 429.4,317.3404736996818 L 430.8,316.9328377978352 L 432.2,316.5371110957979 L 433.6,316.1694203907537 L 435.0,315.84470904364724 L 436.4,315.57538803565177 L 437.8,315.3702116422781 L 439.2,315.2335027030982 L 440.6,315.16481385594136 L 442.0,315.1590712494653 L 443.40000000000003,315.20720600628636 L 444.79999999999995,315.2972304390208 L 446.2,315.4156544012342 L 447.59999999999997,315.54906138135465 L 449.0,315.68558290316884 L 450.4,315.81594150707457 L 451.8,315.9336985902577 L 453.2,316.0343604378151 L 454.6,316.11306915015285 L 456.0,316.1607275461938 L 457.40000000000003,316.1585645951909 L 458.8,316.07133077190315 L 460.20000000000005,315.8395250348467 L 461.59999999999997,315.37131621030966 L 463.0,314.5351540151629 L 464.4,313.1544696629887 L 465.8,311.00629176302976 L 467.2,307.82592493167584 L 468.6,303.3198604647853 L 470.0,297.1885847984073 L 471.4,289.1597448286733 L 472.8,279.0301897074549 L 474.2,266.71294159761925 L 475.6,252.2826258552419 L 477.0,236.01099780157023 L 478.40000000000003,218.38367615723365 L 479.79999999999995,200.0905947007016 L 481.2,181.98616601143453 L 482.59999999999997,165.0203025649933 L 484.0,150.14728922443066 L 485.4,138.224708329796 L 486.8,129.9178235929412 L 488.2,125.6250488193011 L 489.6,125.4370772283842 L 491.0,129.13646751380685 L 492.40000000000003,136.23722190568915 L 493.8,146.05677426728374 L 495.20000000000005,157.80739740132424 L 496.59999999999997,170.69143860839148 L 498.0,183.9853854095467 L 499.4,197.10117856687936 L 500.8,209.61846274884414 L 502.2,221.28732898080327 L 503.6,232.0063113837016 L 505.0,241.78400091069 L 506.4,250.69413600952112 L 507.8,258.8334275732969 L 509.2,266.2891037695056 L 510.6,273.11992851087416 L 512.0,279.351057345565 L 513.4000000000001,284.9802599888825 L 514.8,289.99124536044224 L 516.2,294.36925863370533 L 517.5999999999999,298.1146711138656 L 519.0,301.251620641083 L 520.4,303.83044177601255 L 521.8,305.92422251867646 L 523.2,307.6210168193528 L 524.6,309.0138667209721 L 526.0,310.19084063790615 L 527.4000000000001,311.22689285130656 L 528.8,312.1786773372675 L 530.2,313.0827000216441 L 531.5999999999999,313.95652874645725 L 533.0,314.8023055609582 L 534.4,315.6115665053257 L 535.8,316.37036135511914 L 537.2,317.0638322876534 L 538.6,317.67968677666994 L 540.0,318.21031202996255 L 541.4,318.6535612904046 L 542.8,319.01245127643557 L 544.2,319.2941241849018 L 545.6,319.50844956517034 L 547.0,319.66659116986295 L 548.4000000000001,319.77977100296283 L 549.8,319.85835724463993 L 551.2,319.91130847921136 L 552.5999999999999,319.94593802748767 L 554.0,319.9679236590759 L 555.4,319.98147630789623 L 556.8,319.9895890280984 L 558.2,319.99430556116 L 559.6,319.9969690090525 L 561.0,319.99843009567104 L 562.4000000000001,319.9992087756076 L 563.8,319.99961198442946 L 565.2,319.9998148565147 L 566.5999999999999,319.99991404605885 L 568.0,319.9999611750577 L 569.4,319.9999829378313 L 570.8,319.9999927049588 L 572.2,319.99999696552214 L 573.6,319.999998772006 L 575.0,319.9999995165422 L 576.4,319.9999998148321 L 577.8,319.9999999310058 L 579.2,319.9999999749911 L 580.6,319.9999999911812 L 582.0,319.99999999697485 L 583.4000000000001,319.99999999899046 L 584.8,319.9999999996723 L 586.2,319.9999999998965 L 587.5999999999999,319.9999999999682 L 589.0,319.9999999999905 L 590.4,319.9999999999972 L 591.8,319.9999999999992 L 593.2,319.9999999999998 L 594.6,319.99999999999994 L 596.0,320.0 L 597.4000000000001,320.0 L 598.8,320.0 L 600.2,320.0 L 601.5999999999999,320.0 L 603.0,320.0 L 604.4,320.0 L 605.8,320.0 L 607.2,320.0 L 608.6,320.0 L 610.0,320.0 L 611.4,320.0 L 612.8,320.0 L 614.2,320.0 L 615.6,320.0 L 617.0,320.0 L 618.4000000000001,320.0 L 619.8,320.0 L 621.2,320.0 L 622.5999999999999,320.0 L 624.0,320.0 L 625.4,320.0 L 626.8,320.0 L 628.2,320.0 L 629.6,320.0 L 631.0,320.0 L 632.4,320.0 L 633.8,320.0 L 635.2,320.0 L 636.6,320.0 L 638.0,320.0 L 639.4,320.0 L 640.8000000000001,320.0 L 642.2,320.0 L 643.6,320.0 L 645.0,320.0 L 646.4,320.0 L 647.8,320.0 L 649.1999999999999,320.0 L 650.6,320.0 L 652.0,320.0 L 653.4,320.0 L 654.8,320.0 L 656.2,320.0 L 657.6,320.0 L 659.0,320.0 L 660.4,320.0 L 661.8000000000001,320.0 L 663.1999999999999,320.0 L 664.6,320.0 L 666.0,320.0 L 667.4,320.0 L 668.8,320.0 L 670.2,320.0 L 671.6,320.0 L 673.0,320.0 L 674.4,320.0 L 675.8000000000001,320.0 L 677.2,320.0 L 678.6,320.0 L 680.0,320.0"/>
    <path class="baseline density-curve" d="M 690,80 L 705,80"/>
    <path class="swift density-curve" d="M 690,100 L 705,100"/>
    <text x="120" y="348" class="label-numeric label-x">0.0</text>
    <text x="213" y="348" class="label-numeric label-x">4.0</text>
    <text x="307" y="348" class="label-numeric label-x">8.0</text>
    <text x="400" y="348" class="label-numeric label-x">12.0</text>
    <text x="493" y="348" class="label-numeric label-x">16.0</text>
    <text x="587" y="348" class="label-numeric label-x">20.0</text>
    <text x="680" y="348" class="label-numeric label-x">24.0</text>
    <text x="92" y="320" class="label-numeric label-y">0.0</text>
    <text x="92" y="280" class="label-numeric label-y">0.1</text>
    <text x="92" y="240" class="label-numeric label-y">0.2</text>
    <text x="92" y="200" class="label-numeric label-y">0.3</text>
    <text x="92" y="160" class="label-numeric label-y">0.4</text>
    <text x="92" y="120" class="label-numeric label-y">0.5</text>
    <text x="92" y="80" class="label-numeric label-y">0.6</text>
    <text x="712" y="80" class="label-legend">libpng</text>
    <text x="712" y="100" class="label-legend">swift png</text>
    <text x="400" y="40" class="title">decoding performance</text>
    <text x="400" y="60" class="subtitle">100 trials per test image</text>
    <text x="400" y="370" class="label-axis label-x">run time (ms)</text>
    <text x="40" y="200" class="label-axis label-y label-vertical">density</text>
</svg>
    